# This file uses centimeters as units for non-parametric coordinates.

mtllib table_tri.mtl
g default
v -0.500000 0.250000 -0.849088
v -0.500000 0.350000 -0.849088
v 0.500000 0.250000 -0.849088
v 0.500000 0.350000 -0.849088
v 0.500000 0.250000 -0.949088
v 0.500000 0.350000 -0.949088
v -0.500000 0.250000 -0.949088
v -0.500000 0.350000 -0.949088
v -0.500000 0.250000 0.944140
v -0.500000 0.350000 0.944140
v 0.500000 0.250000 0.944140
v 0.500000 0.350000 0.944140
v 0.500000 0.250000 0.844140
v 0.500000 0.350000 0.844140
v -0.500000 0.250000 0.844140
v -0.500000 0.350000 0.844140
v -0.050000 0.250000 0.900000
v -0.050000 0.350000 0.900000
v 0.050000 0.250000 0.900000
v 0.050000 0.350000 0.900000
v 0.050000 0.250000 -0.900000
v 0.050000 0.350000 -0.900000
v -0.050000 0.250000 -0.900000
v -0.050000 0.350000 -0.900000
v -0.700000 0.475176 1.100000
v -0.700000 0.525176 1.100000
v 0.700000 0.475176 1.100000
v 0.700000 0.525176 1.100000
v 0.700000 0.475176 -1.100000
v 0.700000 0.525176 -1.100000
v -0.700000 0.475176 -1.100000
v -0.700000 0.525176 -1.100000
v -0.600000 -0.500000 0.950000
v -0.600000 0.500000 0.950000
v -0.500000 -0.500000 0.950000
v -0.500000 0.500000 0.950000
v -0.500000 -0.500000 0.850000
v -0.500000 0.500000 0.850000
v -0.600000 -0.500000 0.850000
v -0.600000 0.500000 0.850000
v 0.500000 -0.500000 0.950000
v 0.500000 0.500000 0.950000
v 0.600000 -0.500000 0.950000
v 0.600000 0.500000 0.950000
v 0.600000 -0.500000 0.850000
v 0.600000 0.500000 0.850000
v 0.500000 -0.500000 0.850000
v 0.500000 0.500000 0.850000
v -0.600000 -0.500000 -0.850000
v -0.600000 0.500000 -0.850000
v -0.500000 -0.500000 -0.850000
v -0.500000 0.500000 -0.850000
v -0.500000 -0.500000 -0.950000
v -0.500000 0.500000 -0.950000
v -0.600000 -0.500000 -0.950000
v -0.600000 0.500000 -0.950000
v 0.500000 -0.500000 -0.850000
v 0.500000 0.500000 -0.850000
v 0.600000 -0.500000 -0.850000
v 0.600000 0.500000 -0.850000
v 0.600000 -0.500000 -0.950000
v 0.600000 0.500000 -0.950000
v 0.500000 -0.500000 -0.950000
v 0.500000 0.500000 -0.950000
vn 0.000000 0.000000 1.000000
vn 0.000000 0.000000 1.000000
vn 0.000000 0.000000 1.000000
vn 0.000000 0.000000 1.000000
vn 1.000000 0.000000 0.000000
vn 1.000000 0.000000 0.000000
vn 1.000000 0.000000 0.000000
vn 1.000000 0.000000 0.000000
vn 0.000000 0.000000 -1.000000
vn 0.000000 0.000000 -1.000000
vn 0.000000 0.000000 -1.000000
vn 0.000000 0.000000 -1.000000
vn -1.000000 0.000000 0.000000
vn -1.000000 0.000000 0.000000
vn -1.000000 0.000000 0.000000
vn -1.000000 0.000000 0.000000
vn 0.000000 1.000000 0.000000
vn 0.000000 1.000000 0.000000
vn 0.000000 1.000000 0.000000
vn 0.000000 1.000000 0.000000
vn 0.000000 -1.000000 0.000000
vn 0.000000 -1.000000 0.000000
vn 0.000000 -1.000000 0.000000
vn 0.000000 -1.000000 0.000000
vn 0.000000 0.000000 1.000000
vn 0.000000 0.000000 1.000000
vn 0.000000 0.000000 1.000000
vn 0.000000 0.000000 1.000000
vn 1.000000 0.000000 0.000000
vn 1.000000 0.000000 0.000000
vn 1.000000 0.000000 0.000000
vn 1.000000 0.000000 0.000000
vn 0.000000 0.000000 -1.000000
vn 0.000000 0.000000 -1.000000
vn 0.000000 0.000000 -1.000000
vn 0.000000 0.000000 -1.000000
vn -1.000000 0.000000 0.000000
vn -1.000000 0.000000 0.000000
vn -1.000000 0.000000 0.000000
vn -1.000000 0.000000 0.000000
vn 0.000000 1.000000 0.000000
vn 0.000000 1.000000 0.000000
vn 0.000000 1.000000 0.000000
vn 0.000000 1.000000 0.000000
vn 0.000000 -1.000000 0.000000
vn 0.000000 -1.000000 0.000000
vn 0.000000 -1.000000 0.000000
vn 0.000000 -1.000000 0.000000
vn 0.000000 0.000000 1.000000
vn 0.000000 0.000000 1.000000
vn 0.000000 0.000000 1.000000
vn 0.000000 0.000000 1.000000
vn 1.000000 0.000000 0.000000
vn 1.000000 0.000000 0.000000
vn 1.000000 0.000000 0.000000
vn 1.000000 0.000000 0.000000
vn 0.000000 0.000000 -1.000000
vn 0.000000 0.000000 -1.000000
vn 0.000000 0.000000 -1.000000
vn 0.000000 0.000000 -1.000000
vn -1.000000 0.000000 0.000000
vn -1.000000 0.000000 0.000000
vn -1.000000 0.000000 0.000000
vn -1.000000 0.000000 0.000000
vn 0.000000 1.000000 0.000000
vn 0.000000 1.000000 0.000000
vn 0.000000 1.000000 0.000000
vn 0.000000 1.000000 0.000000
vn 0.000000 -1.000000 0.000000
vn 0.000000 -1.000000 0.000000
vn 0.000000 -1.000000 0.000000
vn 0.000000 -1.000000 0.000000
vn 0.000000 0.000000 1.000000
vn 0.000000 0.000000 1.000000
vn 0.000000 0.000000 1.000000
vn 0.000000 0.000000 1.000000
vn 0.000000 0.000000 -1.000000
vn 0.000000 0.000000 -1.000000
vn 0.000000 0.000000 -1.000000
vn 0.000000 0.000000 -1.000000
vn 0.000000 1.000000 0.000000
vn 0.000000 1.000000 0.000000
vn 0.000000 1.000000 0.000000
vn 0.000000 1.000000 0.000000
vn 0.000000 -1.000000 0.000000
vn 0.000000 -1.000000 0.000000
vn 0.000000 -1.000000 0.000000
vn 0.000000 -1.000000 0.000000
vn 1.000000 0.000000 0.000000
vn 1.000000 0.000000 0.000000
vn 1.000000 0.000000 0.000000
vn 1.000000 0.000000 0.000000
vn -1.000000 0.000000 0.000000
vn -1.000000 0.000000 0.000000
vn -1.000000 0.000000 0.000000
vn -1.000000 0.000000 0.000000
vn 0.000000 0.000000 1.000000
vn 0.000000 0.000000 1.000000
vn 0.000000 0.000000 1.000000
vn 0.000000 0.000000 1.000000
vn 1.000000 0.000000 0.000000
vn 1.000000 0.000000 0.000000
vn 1.000000 0.000000 0.000000
vn 1.000000 0.000000 0.000000
vn 0.000000 0.000000 -1.000000
vn 0.000000 0.000000 -1.000000
vn 0.000000 0.000000 -1.000000
vn 0.000000 0.000000 -1.000000
vn -1.000000 0.000000 0.000000
vn -1.000000 0.000000 0.000000
vn -1.000000 0.000000 0.000000
vn -1.000000 0.000000 0.000000
vn 0.000000 1.000000 0.000000
vn 0.000000 1.000000 0.000000
vn 0.000000 1.000000 0.000000
vn 0.000000 1.000000 0.000000
vn 0.000000 -1.000000 0.000000
vn 0.000000 -1.000000 0.000000
vn 0.000000 -1.000000 0.000000
vn 0.000000 -1.000000 0.000000
vn 0.000000 0.000000 1.000000
vn 0.000000 0.000000 1.000000
vn 0.000000 0.000000 1.000000
vn 0.000000 0.000000 1.000000
vn 1.000000 0.000000 0.000000
vn 1.000000 0.000000 0.000000
vn 1.000000 0.000000 0.000000
vn 1.000000 0.000000 0.000000
vn 0.000000 0.000000 -1.000000
vn 0.000000 0.000000 -1.000000
vn 0.000000 0.000000 -1.000000
vn 0.000000 0.000000 -1.000000
vn -1.000000 0.000000 0.000000
vn -1.000000 0.000000 0.000000
vn -1.000000 0.000000 0.000000
vn -1.000000 0.000000 0.000000
vn 0.000000 1.000000 0.000000
vn 0.000000 1.000000 0.000000
vn 0.000000 1.000000 0.000000
vn 0.000000 1.000000 0.000000
vn 0.000000 -1.000000 0.000000
vn 0.000000 -1.000000 0.000000
vn 0.000000 -1.000000 0.000000
vn 0.000000 -1.000000 0.000000
vn 0.000000 0.000000 1.000000
vn 0.000000 0.000000 1.000000
vn 0.000000 0.000000 1.000000
vn 0.000000 0.000000 1.000000
vn 1.000000 0.000000 0.000000
vn 1.000000 0.000000 0.000000
vn 1.000000 0.000000 0.000000
vn 1.000000 0.000000 0.000000
vn 0.000000 0.000000 -1.000000
vn 0.000000 0.000000 -1.000000
vn 0.000000 0.000000 -1.000000
vn 0.000000 0.000000 -1.000000
vn -1.000000 0.000000 0.000000
vn -1.000000 0.000000 0.000000
vn -1.000000 0.000000 0.000000
vn -1.000000 0.000000 0.000000
vn 0.000000 1.000000 0.000000
vn 0.000000 1.000000 0.000000
vn 0.000000 1.000000 0.000000
vn 0.000000 1.000000 0.000000
vn 0.000000 -1.000000 0.000000
vn 0.000000 -1.000000 0.000000
vn 0.000000 -1.000000 0.000000
vn 0.000000 -1.000000 0.000000
vn 0.000000 0.000000 1.000000
vn 0.000000 0.000000 1.000000
vn 0.000000 0.000000 1.000000
vn 0.000000 0.000000 1.000000
vn 1.000000 0.000000 0.000000
vn 1.000000 0.000000 0.000000
vn 1.000000 0.000000 0.000000
vn 1.000000 0.000000 0.000000
vn 0.000000 0.000000 -1.000000
vn 0.000000 0.000000 -1.000000
vn 0.000000 0.000000 -1.000000
vn 0.000000 0.000000 -1.000000
vn -1.000000 0.000000 0.000000
vn -1.000000 0.000000 0.000000
vn -1.000000 0.000000 0.000000
vn -1.000000 0.000000 0.000000
vn 0.000000 1.000000 0.000000
vn 0.000000 1.000000 0.000000
vn 0.000000 1.000000 0.000000
vn 0.000000 1.000000 0.000000
vn 0.000000 -1.000000 0.000000
vn 0.000000 -1.000000 0.000000
vn 0.000000 -1.000000 0.000000
vn 0.000000 -1.000000 0.000000
s 1
g table:Mesh
usemtl initialShadingGroup
f 3//1 4//2 1//3
f 1//3 4//2 2//4
s 2
f 5//5 6//6 3//7
f 3//7 6//6 4//8
s 3
f 7//9 8//10 5//11
f 5//11 8//10 6//12
s 4
f 1//13 2//14 7//15
f 7//15 2//14 8//16
s 5
f 4//17 6//18 2//19
f 2//19 6//18 8//20
s 6
f 5//21 3//22 7//23
f 7//23 3//22 1//24
s 7
f 11//25 12//26 9//27
f 9//27 12//26 10//28
s 8
f 13//29 14//30 11//31
f 11//31 14//30 12//32
s 9
f 15//33 16//34 13//35
f 13//35 16//34 14//36
s 10
f 9//37 10//38 15//39
f 15//39 10//38 16//40
s 11
f 12//41 14//42 10//43
f 10//43 14//42 16//44
s 12
f 13//45 11//46 15//47
f 15//47 11//46 9//48
s 13
f 19//49 20//50 17//51
f 17//51 20//50 18//52
s 14
f 21//53 22//54 19//55
f 19//55 22//54 20//56
s 15
f 23//57 24//58 21//59
f 21//59 24//58 22//60
s 16
f 17//61 18//62 23//63
f 23//63 18//62 24//64
s 17
f 20//65 22//66 18//67
f 18//67 22//66 24//68
s 18
f 21//69 19//70 23//71
f 23//71 19//70 17//72
s 19
f 27//73 28//74 25//75
f 25//75 28//74 26//76
s 20
f 31//77 32//78 29//79
f 29//79 32//78 30//80
s 21
f 28//81 30//82 26//83
f 26//83 30//82 32//84
s 22
f 29//85 27//86 31//87
f 31//87 27//86 25//88
s 23
f 29//89 30//90 27//91
f 27//91 30//90 28//92
s 24
f 25//93 26//94 31//95
f 31//95 26//94 32//96
s 25
f 35//97 36//98 33//99
f 33//99 36//98 34//100
s 26
f 37//101 38//102 35//103
f 35//103 38//102 36//104
s 27
f 39//105 40//106 37//107
f 37//107 40//106 38//108
s 28
f 33//109 34//110 39//111
f 39//111 34//110 40//112
s 29
f 36//113 38//114 34//115
f 34//115 38//114 40//116
s 30
f 37//117 35//118 39//119
f 39//119 35//118 33//120
s 31
f 43//121 44//122 41//123
f 41//123 44//122 42//124
s 32
f 45//125 46//126 43//127
f 43//127 46//126 44//128
s 33
f 47//129 48//130 45//131
f 45//131 48//130 46//132
s 34
f 41//133 42//134 47//135
f 47//135 42//134 48//136
s 35
f 44//137 46//138 42//139
f 42//139 46//138 48//140
s 36
f 45//141 43//142 47//143
f 47//143 43//142 41//144
s 37
f 51//145 52//146 49//147
f 49//147 52//146 50//148
s 38
f 53//149 54//150 51//151
f 51//151 54//150 52//152
s 39
f 55//153 56//154 53//155
f 53//155 56//154 54//156
s 40
f 49//157 50//158 55//159
f 55//159 50//158 56//160
s 41
f 52//161 54//162 50//163
f 50//163 54//162 56//164
s 42
f 53//165 51//166 55//167
f 55//167 51//166 49//168
s 43
f 59//169 60//170 57//171
f 57//171 60//170 58//172
s 44
f 61//173 62//174 59//175
f 59//175 62//174 60//176
s 45
f 63//177 64//178 61//179
f 61//179 64//178 62//180
s 46
f 57//181 58//182 63//183
f 63//183 58//182 64//184
s 47
f 60//185 62//186 58//187
f 58//187 62//186 64//188
s 48
f 61//189 59//190 63//191
f 63//191 59//190 57//192
g default
v -0.500000 0.250000 -0.849088
v -0.500000 0.350000 -0.849088
v 0.500000 0.250000 -0.849088
v 0.500000 0.350000 -0.849088
v 0.500000 0.250000 -0.949088
v 0.500000 0.350000 -0.949088
v -0.500000 0.250000 -0.949088
v -0.500000 0.350000 -0.949088
v -0.500000 0.250000 0.944140
v -0.500000 0.350000 0.944140
v 0.500000 0.250000 0.944140
v 0.500000 0.350000 0.944140
v 0.500000 0.250000 0.844140
v 0.500000 0.350000 0.844140
v -0.500000 0.250000 0.844140
v -0.500000 0.350000 0.844140
v -0.050000 0.250000 0.900000
v -0.050000 0.350000 0.900000
v 0.050000 0.250000 0.900000
v 0.050000 0.350000 0.900000
v 0.050000 0.250000 -0.900000
v 0.050000 0.350000 -0.900000
v -0.050000 0.250000 -0.900000
v -0.050000 0.350000 -0.900000
v -0.700000 0.475176 1.100000
v -0.700000 0.525176 1.100000
v 0.700000 0.475176 1.100000
v 0.700000 0.525176 1.100000
v 0.700000 0.475176 -1.100000
v 0.700000 0.525176 -1.100000
v -0.700000 0.475176 -1.100000
v -0.700000 0.525176 -1.100000
v -0.600000 -0.500000 0.950000
v -0.600000 0.500000 0.950000
v -0.500000 -0.500000 0.950000
v -0.500000 0.500000 0.950000
v -0.500000 -0.500000 0.850000
v -0.500000 0.500000 0.850000
v -0.600000 -0.500000 0.850000
v -0.600000 0.500000 0.850000
v 0.500000 -0.500000 0.950000
v 0.500000 0.500000 0.950000
v 0.600000 -0.500000 0.950000
v 0.600000 0.500000 0.950000
v 0.600000 -0.500000 0.850000
v 0.600000 0.500000 0.850000
v 0.500000 -0.500000 0.850000
v 0.500000 0.500000 0.850000
v -0.600000 -0.500000 -0.850000
v -0.600000 0.500000 -0.850000
v -0.500000 -0.500000 -0.850000
v -0.500000 0.500000 -0.850000
v -0.500000 -0.500000 -0.950000
v -0.500000 0.500000 -0.950000
v -0.600000 -0.500000 -0.950000
v -0.600000 0.500000 -0.950000
v 0.500000 -0.500000 -0.850000
v 0.500000 0.500000 -0.850000
v 0.600000 -0.500000 -0.850000
v 0.600000 0.500000 -0.850000
v 0.600000 -0.500000 -0.950000
v 0.600000 0.500000 -0.950000
v 0.500000 -0.500000 -0.950000
v 0.500000 0.500000 -0.950000
vn 0.000000 0.000000 1.000000
vn 0.000000 0.000000 1.000000
vn 0.000000 0.000000 1.000000
vn 0.000000 0.000000 1.000000
vn 1.000000 0.000000 0.000000
vn 1.000000 0.000000 0.000000
vn 1.000000 0.000000 0.000000
vn 1.000000 0.000000 0.000000
vn 0.000000 0.000000 -1.000000
vn 0.000000 0.000000 -1.000000
vn 0.000000 0.000000 -1.000000
vn 0.000000 0.000000 -1.000000
vn -1.000000 0.000000 0.000000
vn -1.000000 0.000000 0.000000
vn -1.000000 0.000000 0.000000
vn -1.000000 0.000000 0.000000
vn 0.000000 1.000000 0.000000
vn 0.000000 1.000000 0.000000
vn 0.000000 1.000000 0.000000
vn 0.000000 1.000000 0.000000
vn 0.000000 -1.000000 0.000000
vn 0.000000 -1.000000 0.000000
vn 0.000000 -1.000000 0.000000
vn 0.000000 -1.000000 0.000000
vn 0.000000 0.000000 1.000000
vn 0.000000 0.000000 1.000000
vn 0.000000 0.000000 1.000000
vn 0.000000 0.000000 1.000000
vn 1.000000 0.000000 0.000000
vn 1.000000 0.000000 0.000000
vn 1.000000 0.000000 0.000000
vn 1.000000 0.000000 0.000000
vn 0.000000 0.000000 -1.000000
vn 0.000000 0.000000 -1.000000
vn 0.000000 0.000000 -1.000000
vn 0.000000 0.000000 -1.000000
vn -1.000000 0.000000 0.000000
vn -1.000000 0.000000 0.000000
vn -1.000000 0.000000 0.000000
vn -1.000000 0.000000 0.000000
vn 0.000000 1.000000 0.000000
vn 0.000000 1.000000 0.000000
vn 0.000000 1.000000 0.000000
vn 0.000000 1.000000 0.000000
vn 0.000000 -1.000000 0.000000
vn 0.000000 -1.000000 0.000000
vn 0.000000 -1.000000 0.000000
vn 0.000000 -1.000000 0.000000
vn 0.000000 0.000000 1.000000
vn 0.000000 0.000000 1.000000
vn 0.000000 0.000000 1.000000
vn 0.000000 0.000000 1.000000
vn 1.000000 0.000000 0.000000
vn 1.000000 0.000000 0.000000
vn 1.000000 0.000000 0.000000
vn 1.000000 0.000000 0.000000
vn 0.000000 0.000000 -1.000000
vn 0.000000 0.000000 -1.000000
vn 0.000000 0.000000 -1.000000
vn 0.000000 0.000000 -1.000000
vn -1.000000 0.000000 0.000000
vn -1.000000 0.000000 0.000000
vn -1.000000 0.000000 0.000000
vn -1.000000 0.000000 0.000000
vn 0.000000 1.000000 0.000000
vn 0.000000 1.000000 0.000000
vn 0.000000 1.000000 0.000000
vn 0.000000 1.000000 0.000000
vn 0.000000 -1.000000 0.000000
vn 0.000000 -1.000000 0.000000
vn 0.000000 -1.000000 0.000000
vn 0.000000 -1.000000 0.000000
vn 0.000000 0.000000 1.000000
vn 0.000000 0.000000 1.000000
vn 0.000000 0.000000 1.000000
vn 0.000000 0.000000 1.000000
vn 0.000000 0.000000 -1.000000
vn 0.000000 0.000000 -1.000000
vn 0.000000 0.000000 -1.000000
vn 0.000000 0.000000 -1.000000
vn 0.000000 1.000000 0.000000
vn 0.000000 1.000000 0.000000
vn 0.000000 1.000000 0.000000
vn 0.000000 1.000000 0.000000
vn 0.000000 -1.000000 0.000000
vn 0.000000 -1.000000 0.000000
vn 0.000000 -1.000000 0.000000
vn 0.000000 -1.000000 0.000000
vn 1.000000 0.000000 0.000000
vn 1.000000 0.000000 0.000000
vn 1.000000 0.000000 0.000000
vn 1.000000 0.000000 0.000000
vn -1.000000 0.000000 0.000000
vn -1.000000 0.000000 0.000000
vn -1.000000 0.000000 0.000000
vn -1.000000 0.000000 0.000000
vn 0.000000 0.000000 1.000000
vn 0.000000 0.000000 1.000000
vn 0.000000 0.000000 1.000000
vn 0.000000 0.000000 1.000000
vn 1.000000 0.000000 0.000000
vn 1.000000 0.000000 0.000000
vn 1.000000 0.000000 0.000000
vn 1.000000 0.000000 0.000000
vn 0.000000 0.000000 -1.000000
vn 0.000000 0.000000 -1.000000
vn 0.000000 0.000000 -1.000000
vn 0.000000 0.000000 -1.000000
vn -1.000000 0.000000 0.000000
vn -1.000000 0.000000 0.000000
vn -1.000000 0.000000 0.000000
vn -1.000000 0.000000 0.000000
vn 0.000000 1.000000 0.000000
vn 0.000000 1.000000 0.000000
vn 0.000000 1.000000 0.000000
vn 0.000000 1.000000 0.000000
vn 0.000000 -1.000000 0.000000
vn 0.000000 -1.000000 0.000000
vn 0.000000 -1.000000 0.000000
vn 0.000000 -1.000000 0.000000
vn 0.000000 0.000000 1.000000
vn 0.000000 0.000000 1.000000
vn 0.000000 0.000000 1.000000
vn 0.000000 0.000000 1.000000
vn 1.000000 0.000000 0.000000
vn 1.000000 0.000000 0.000000
vn 1.000000 0.000000 0.000000
vn 1.000000 0.000000 0.000000
vn 0.000000 0.000000 -1.000000
vn 0.000000 0.000000 -1.000000
vn 0.000000 0.000000 -1.000000
vn 0.000000 0.000000 -1.000000
vn -1.000000 0.000000 0.000000
vn -1.000000 0.000000 0.000000
vn -1.000000 0.000000 0.000000
vn -1.000000 0.000000 0.000000
vn 0.000000 1.000000 0.000000
vn 0.000000 1.000000 0.000000
vn 0.000000 1.000000 0.000000
vn 0.000000 1.000000 0.000000
vn 0.000000 -1.000000 0.000000
vn 0.000000 -1.000000 0.000000
vn 0.000000 -1.000000 0.000000
vn 0.000000 -1.000000 0.000000
vn 0.000000 0.000000 1.000000
vn 0.000000 0.000000 1.000000
vn 0.000000 0.000000 1.000000
vn 0.000000 0.000000 1.000000
vn 1.000000 0.000000 0.000000
vn 1.000000 0.000000 0.000000
vn 1.000000 0.000000 0.000000
vn 1.000000 0.000000 0.000000
vn 0.000000 0.000000 -1.000000
vn 0.000000 0.000000 -1.000000
vn 0.000000 0.000000 -1.000000
vn 0.000000 0.000000 -1.000000
vn -1.000000 0.000000 0.000000
vn -1.000000 0.000000 0.000000
vn -1.000000 0.000000 0.000000
vn -1.000000 0.000000 0.000000
vn 0.000000 1.000000 0.000000
vn 0.000000 1.000000 0.000000
vn 0.000000 1.000000 0.000000
vn 0.000000 1.000000 0.000000
vn 0.000000 -1.000000 0.000000
vn 0.000000 -1.000000 0.000000
vn 0.000000 -1.000000 0.000000
vn 0.000000 -1.000000 0.000000
vn 0.000000 0.000000 1.000000
vn 0.000000 0.000000 1.000000
vn 0.000000 0.000000 1.000000
vn 0.000000 0.000000 1.000000
vn 1.000000 0.000000 0.000000
vn 1.000000 0.000000 0.000000
vn 1.000000 0.000000 0.000000
vn 1.000000 0.000000 0.000000
vn 0.000000 0.000000 -1.000000
vn 0.000000 0.000000 -1.000000
vn 0.000000 0.000000 -1.000000
vn 0.000000 0.000000 -1.000000
vn -1.000000 0.000000 0.000000
vn -1.000000 0.000000 0.000000
vn -1.000000 0.000000 0.000000
vn -1.000000 0.000000 0.000000
vn 0.000000 1.000000 0.000000
vn 0.000000 1.000000 0.000000
vn 0.000000 1.000000 0.000000
vn 0.000000 1.000000 0.000000
vn 0.000000 -1.000000 0.000000
vn 0.000000 -1.000000 0.000000
vn 0.000000 -1.000000 0.000000
vn 0.000000 -1.000000 0.000000
s 1
g table:Mesh
f 67//193 68//194 65//195
f 65//195 68//194 66//196
s 2
f 69//197 70//198 67//199
f 67//199 70//198 68//200
s 3
f 71//201 72//202 69//203
f 69//203 72//202 70//204
s 4
f 65//205 66//206 71//207
f 71//207 66//206 72//208
s 5
f 68//209 70//210 66//211
f 66//211 70//210 72//212
s 6
f 69//213 67//214 71//215
f 71//215 67//214 65//216
s 7
f 75//217 76//218 73//219
f 73//219 76//218 74//220
s 8
f 77//221 78//222 75//223
f 75//223 78//222 76//224
s 9
f 79//225 80//226 77//227
f 77//227 80//226 78//228
s 10
f 73//229 74//230 79//231
f 79//231 74//230 80//232
s 11
f 76//233 78//234 74//235
f 74//235 78//234 80//236
s 12
f 77//237 75//238 79//239
f 79//239 75//238 73//240
s 13
f 83//241 84//242 81//243
f 81//243 84//242 82//244
s 14
f 85//245 86//246 83//247
f 83//247 86//246 84//248
s 15
f 87//249 88//250 85//251
f 85//251 88//250 86//252
s 16
f 81//253 82//254 87//255
f 87//255 82//254 88//256
s 17
f 84//257 86//258 82//259
f 82//259 86//258 88//260
s 18
f 85//261 83//262 87//263
f 87//263 83//262 81//264
s 19
f 91//265 92//266 89//267
f 89//267 92//266 90//268
s 20
f 95//269 96//270 93//271
f 93//271 96//270 94//272
s 21
f 92//273 94//274 90//275
f 90//275 94//274 96//276
s 22
f 93//277 91//278 95//279
f 95//279 91//278 89//280
s 23
f 93//281 94//282 91//283
f 91//283 94//282 92//284
s 24
f 89//285 90//286 95//287
f 95//287 90//286 96//288
s 25
f 99//289 100//290 97//291
f 97//291 100//290 98//292
s 26
f 101//293 102//294 99//295
f 99//295 102//294 100//296
s 27
f 103//297 104//298 101//299
f 101//299 104//298 102//300
s 28
f 97//301 98//302 103//303
f 103//303 98//302 104//304
s 29
f 100//305 102//306 98//307
f 98//307 102//306 104//308
s 30
f 101//309 99//310 103//311
f 103//311 99//310 97//312
s 31
f 107//313 108//314 105//315
f 105//315 108//314 106//316
s 32
f 109//317 110//318 107//319
f 107//319 110//318 108//320
s 33
f 111//321 112//322 109//323
f 109//323 112//322 110//324
s 34
f 105//325 106//326 111//327
f 111//327 106//326 112//328
s 35
f 108//329 110//330 106//331
f 106//331 110//330 112//332
s 36
f 109//333 107//334 111//335
f 111//335 107//334 105//336
s 37
f 115//337 116//338 113//339
f 113//339 116//338 114//340
s 38
f 117//341 118//342 115//343
f 115//343 118//342 116//344
s 39
f 119//345 120//346 117//347
f 117//347 120//346 118//348
s 40
f 113//349 114//350 119//351
f 119//351 114//350 120//352
s 41
f 116//353 118//354 114//355
f 114//355 118//354 120//356
s 42
f 117//357 115//358 119//359
f 119//359 115//358 113//360
s 43
f 123//361 124//362 121//363
f 121//363 124//362 122//364
s 44
f 125//365 126//366 123//367
f 123//367 126//366 124//368
s 45
f 127//369 128//370 125//371
f 125//371 128//370 126//372
s 46
f 121//373 122//374 127//375
f 127//375 122//374 128//376
s 47
f 124//377 126//378 122//379
f 122//379 126//378 128//380
s 48
f 125//381 123//382 127//383
f 127//383 123//382 121//384
