# This file uses centimeters as units for non-parametric coordinates.

mtllib table_tri.mtl
g default
v -0.500000 0.250000 -0.849088
v -0.500000 0.350000 -0.849088
v 0.500000 0.250000 -0.849088
v 0.500000 0.350000 -0.849088
v 0.500000 0.250000 -0.949088
v 0.500000 0.350000 -0.949088
v -0.500000 0.250000 -0.949088
v -0.500000 0.350000 -0.949088
v -0.500000 0.250000 0.944140
v -0.500000 0.350000 0.944140
v 0.500000 0.250000 0.944140
v 0.500000 0.350000 0.944140
v 0.500000 0.250000 0.844140
v 0.500000 0.350000 0.844140
v -0.500000 0.250000 0.844140
v -0.500000 0.350000 0.844140
v -0.050000 0.250000 0.900000
v -0.050000 0.350000 0.900000
v 0.050000 0.250000 0.900000
v 0.050000 0.350000 0.900000
v 0.050000 0.250000 -0.900000
v 0.050000 0.350000 -0.900000
v -0.050000 0.250000 -0.900000
v -0.050000 0.350000 -0.900000
v -0.700000 0.475176 1.100000
v -0.700000 0.525176 1.100000
v 0.700000 0.475176 1.100000
v 0.700000 0.525176 1.100000
v 0.700000 0.475176 -1.100000
v 0.700000 0.525176 -1.100000
v -0.700000 0.475176 -1.100000
v -0.700000 0.525176 -1.100000
v -0.600000 -0.500000 0.950000
v -0.600000 0.500000 0.950000
v -0.500000 -0.500000 0.950000
v -0.500000 0.500000 0.950000
v -0.500000 -0.500000 0.850000
v -0.500000 0.500000 0.850000
v -0.600000 -0.500000 0.850000
v -0.600000 0.500000 0.850000
v 0.500000 -0.500000 0.950000
v 0.500000 0.500000 0.950000
v 0.600000 -0.500000 0.950000
v 0.600000 0.500000 0.950000
v 0.600000 -0.500000 0.850000
v 0.600000 0.500000 0.850000
v 0.500000 -0.500000 0.850000
v 0.500000 0.500000 0.850000
v -0.600000 -0.500000 -0.850000
v -0.600000 0.500000 -0.850000
v -0.500000 -0.500000 -0.850000
v -0.500000 0.500000 -0.850000
v -0.500000 -0.500000 -0.950000
v -0.500000 0.500000 -0.950000
v -0.600000 -0.500000 -0.950000
v -0.600000 0.500000 -0.950000
v 0.500000 -0.500000 -0.850000
v 0.500000 0.500000 -0.850000
v 0.600000 -0.500000 -0.850000
v 0.600000 0.500000 -0.850000
v 0.600000 -0.500000 -0.950000
v 0.600000 0.500000 -0.950000
v 0.500000 -0.500000 -0.950000
v 0.500000 0.500000 -0.950000
vn 0.000000 0.000000 1.000000
vn 0.000000 0.000000 1.000000
vn 0.000000 0.000000 1.000000
vn 0.000000 0.000000 1.000000
vn 1.000000 0.000000 0.000000
vn 1.000000 0.000000 0.000000
vn 1.000000 0.000000 0.000000
vn 1.000000 0.000000 0.000000
vn 0.000000 0.000000 -1.000000
vn 0.000000 0.000000 -1.000000
vn 0.000000 0.000000 -1.000000
vn 0.000000 0.000000 -1.000000
vn -1.000000 0.000000 0.000000
vn -1.000000 0.000000 0.000000
vn -1.000000 0.000000 0.000000
vn -1.000000 0.000000 0.000000
vn 0.000000 1.000000 0.000000
vn 0.000000 1.000000 0.000000
vn 0.000000 1.000000 0.000000
vn 0.000000 1.000000 0.000000
vn 0.000000 -1.000000 0.000000
vn 0.000000 -1.000000 0.000000
vn 0.000000 -1.000000 0.000000
vn 0.000000 -1.000000 0.000000
vn 0.000000 0.000000 1.000000
vn 0.000000 0.000000 1.000000
vn 0.000000 0.000000 1.000000
vn 0.000000 0.000000 1.000000
vn 1.000000 0.000000 0.000000
vn 1.000000 0.000000 0.000000
vn 1.000000 0.000000 0.000000
vn 1.000000 0.000000 0.000000
vn 0.000000 0.000000 -1.000000
vn 0.000000 0.000000 -1.000000
vn 0.000000 0.000000 -1.000000
vn 0.000000 0.000000 -1.000000
vn -1.000000 0.000000 0.000000
vn -1.000000 0.000000 0.000000
vn -1.000000 0.000000 0.000000
vn -1.000000 0.000000 0.000000
vn 0.000000 1.000000 0.000000
vn 0.000000 1.000000 0.000000
vn 0.000000 1.000000 0.000000
vn 0.000000 1.000000 0.000000
vn 0.000000 -1.000000 0.000000
vn 0.000000 -1.000000 0.000000
vn 0.000000 -1.000000 0.000000
vn 0.000000 -1.000000 0.000000
vn 0.000000 0.000000 1.000000
vn 0.000000 0.000000 1.000000
vn 0.000000 0.000000 1.000000
vn 0.000000 0.000000 1.000000
vn 1.000000 0.000000 0.000000
vn 1.000000 0.000000 0.000000
vn 1.000000 0.000000 0.000000
vn 1.000000 0.000000 0.000000
vn 0.000000 0.000000 -1.000000
vn 0.000000 0.000000 -1.000000
vn 0.000000 0.000000 -1.000000
vn 0.000000 0.000000 -1.000000
vn -1.000000 0.000000 0.000000
vn -1.000000 0.000000 0.000000
vn -1.000000 0.000000 0.000000
vn -1.000000 0.000000 0.000000
vn 0.000000 1.000000 0.000000
vn 0.000000 1.000000 0.000000
vn 0.000000 1.000000 0.000000
vn 0.000000 1.000000 0.000000
vn 0.000000 -1.000000 0.000000
vn 0.000000 -1.000000 0.000000
vn 0.000000 -1.000000 0.000000
vn 0.000000 -1.000000 0.000000
vn 0.000000 0.000000 1.000000
vn 0.000000 0.000000 1.000000
vn 0.000000 0.000000 1.000000
vn 0.000000 0.000000 1.000000
vn 0.000000 0.000000 -1.000000
vn 0.000000 0.000000 -1.000000
vn 0.000000 0.000000 -1.000000
vn 0.000000 0.000000 -1.000000
vn 0.000000 1.000000 0.000000
vn 0.000000 1.000000 0.000000
vn 0.000000 1.000000 0.000000
vn 0.000000 1.000000 0.000000
vn 0.000000 -1.000000 0.000000
vn 0.000000 -1.000000 0.000000
vn 0.000000 -1.000000 0.000000
vn 0.000000 -1.000000 0.000000
vn 1.000000 0.000000 0.000000
vn 1.000000 0.000000 0.000000
vn 1.000000 0.000000 0.000000
vn 1.000000 0.000000 0.000000
vn -1.000000 0.000000 0.000000
vn -1.000000 0.000000 0.000000
vn -1.000000 0.000000 0.000000
vn -1.000000 0.000000 0.000000
vn 0.000000 0.000000 1.000000
vn 0.000000 0.000000 1.000000
vn 0.000000 0.000000 1.000000
vn 0.000000 0.000000 1.000000
vn 1.000000 0.000000 0.000000
vn 1.000000 0.000000 0.000000
vn 1.000000 0.000000 0.000000
vn 1.000000 0.000000 0.000000
vn 0.000000 0.000000 -1.000000
vn 0.000000 0.000000 -1.000000
vn 0.000000 0.000000 -1.000000
vn 0.000000 0.000000 -1.000000
vn -1.000000 0.000000 0.000000
vn -1.000000 0.000000 0.000000
vn -1.000000 0.000000 0.000000
vn -1.000000 0.000000 0.000000
vn 0.000000 1.000000 0.000000
vn 0.000000 1.000000 0.000000
vn 0.000000 1.000000 0.000000
vn 0.000000 1.000000 0.000000
vn 0.000000 -1.000000 0.000000
vn 0.000000 -1.000000 0.000000
vn 0.000000 -1.000000 0.000000
vn 0.000000 -1.000000 0.000000
vn 0.000000 0.000000 1.000000
vn 0.000000 0.000000 1.000000
vn 0.000000 0.000000 1.000000
vn 0.000000 0.000000 1.000000
vn 1.000000 0.000000 0.000000
vn 1.000000 0.000000 0.000000
vn 1.000000 0.000000 0.000000
vn 1.000000 0.000000 0.000000
vn 0.000000 0.000000 -1.000000
vn 0.000000 0.000000 -1.000000
vn 0.000000 0.000000 -1.000000
vn 0.000000 0.000000 -1.000000
vn -1.000000 0.000000 0.000000
vn -1.000000 0.000000 0.000000
vn -1.000000 0.000000 0.000000
vn -1.000000 0.000000 0.000000
vn 0.000000 1.000000 0.000000
vn 0.000000 1.000000 0.000000
vn 0.000000 1.000000 0.000000
vn 0.000000 1.000000 0.000000
vn 0.000000 -1.000000 0.000000
vn 0.000000 -1.000000 0.000000
vn 0.000000 -1.000000 0.000000
vn 0.000000 -1.000000 0.000000
vn 0.000000 0.000000 1.000000
vn 0.000000 0.000000 1.000000
vn 0.000000 0.000000 1.000000
vn 0.000000 0.000000 1.000000
vn 1.000000 0.000000 0.000000
vn 1.000000 0.000000 0.000000
vn 1.000000 0.000000 0.000000
vn 1.000000 0.000000 0.000000
vn 0.000000 0.000000 -1.000000
vn 0.000000 0.000000 -1.000000
vn 0.000000 0.000000 -1.000000
vn 0.000000 0.000000 -1.000000
vn -1.000000 0.000000 0.000000
vn -1.000000 0.000000 0.000000
vn -1.000000 0.000000 0.000000
vn -1.000000 0.000000 0.000000
vn 0.000000 1.000000 0.000000
vn 0.000000 1.000000 0.000000
vn 0.000000 1.000000 0.000000
vn 0.000000 1.000000 0.000000
vn 0.000000 -1.000000 0.000000
vn 0.000000 -1.000000 0.000000
vn 0.000000 -1.000000 0.000000
vn 0.000000 -1.000000 0.000000
vn 0.000000 0.000000 1.000000
vn 0.000000 0.000000 1.000000
vn 0.000000 0.000000 1.000000
vn 0.000000 0.000000 1.000000
vn 1.000000 0.000000 0.000000
vn 1.000000 0.000000 0.000000
vn 1.000000 0.000000 0.000000
vn 1.000000 0.000000 0.000000
vn 0.000000 0.000000 -1.000000
vn 0.000000 0.000000 -1.000000
vn 0.000000 0.000000 -1.000000
vn 0.000000 0.000000 -1.000000
vn -1.000000 0.000000 0.000000
vn -1.000000 0.000000 0.000000
vn -1.000000 0.000000 0.000000
vn -1.000000 0.000000 0.000000
vn 0.000000 1.000000 0.000000
vn 0.000000 1.000000 0.000000
vn 0.000000 1.000000 0.000000
vn 0.000000 1.000000 0.000000
vn 0.000000 -1.000000 0.000000
vn 0.000000 -1.000000 0.000000
vn 0.000000 -1.000000 0.000000
vn 0.000000 -1.000000 0.000000
s 1
g table:Mesh
usemtl initialShadingGroup
f 3//1 4//2 1//3
f 1//3 4//2 2//4
s 2
f 5//5 6//6 3//7
f 3//7 6//6 4//8
s 3
f 7//9 8//10 5//11
f 5//11 8//10 6//12
s 4
f 1//13 2//14 7//15
f 7//15 2//14 8//16
s 5
f 4//17 6//18 2//19
f 2//19 6//18 8//20
s 6
f 5//21 3//22 7//23
f 7//23 3//22 1//24
s 7
f 11//25 12//26 9//27
f 9//27 12//26 10//28
s 8
f 13//29 14//30 11//31
f 11//31 14//30 12//32
s 9
f 15//33 16//34 13//35
f 13//35 16//34 14//36
s 10
f 9//37 10//38 15//39
f 15//39 10//38 16//40
s 11
f 12//41 14//42 10//43
f 10//43 14//42 16//44
s 12
f 13//45 11//46 15//47
f 15//47 11//46 9//48
s 13
f 19//49 20//50 17//51
f 17//51 20//50 18//52
s 14
f 21//53 22//54 19//55
f 19//55 22//54 20//56
s 15
f 23//57 24//58 21//59
f 21//59 24//58 22//60
s 16
f 17//61 18//62 23//63
f 23//63 18//62 24//64
s 17
f 20//65 22//66 18//67
f 18//67 22//66 24//68
s 18
f 21//69 19//70 23//71
f 23//71 19//70 17//72
s 19
f 27//73 28//74 25//75
f 25//75 28//74 26//76
s 20
f 31//77 32//78 29//79
f 29//79 32//78 30//80
s 21
f 28//81 30//82 26//83
f 26//83 30//82 32//84
s 22
f 29//85 27//86 31//87
f 31//87 27//86 25//88
s 23
f 29//89 30//90 27//91
f 27//91 30//90 28//92
s 24
f 25//93 26//94 31//95
f 31//95 26//94 32//96
s 25
f 35//97 36//98 33//99
f 33//99 36//98 34//100
s 26
f 37//101 38//102 35//103
f 35//103 38//102 36//104
s 27
f 39//105 40//106 37//107
f 37//107 40//106 38//108
s 28
f 33//109 34//110 39//111
f 39//111 34//110 40//112
s 29
f 36//113 38//114 34//115
f 34//115 38//114 40//116
s 30
f 37//117 35//118 39//119
f 39//119 35//118 33//120
s 31
f 43//121 44//122 41//123
f 41//123 44//122 42//124
s 32
f 45//125 46//126 43//127
f 43//127 46//126 44//128
s 33
f 47//129 48//130 45//131
f 45//131 48//130 46//132
s 34
f 41//133 42//134 47//135
f 47//135 42//134 48//136
s 35
f 44//137 46//138 42//139
f 42//139 46//138 48//140
s 36
f 45//141 43//142 47//143
f 47//143 43//142 41//144
s 37
f 51//145 52//146 49//147
f 49//147 52//146 50//148
s 38
f 53//149 54//150 51//151
f 51//151 54//150 52//152
s 39
f 55//153 56//154 53//155
f 53//155 56//154 54//156
s 40
f 49//157 50//158 55//159
f 55//159 50//158 56//160
s 41
f 52//161 54//162 50//163
f 50//163 54//162 56//164
s 42
f 53//165 51//166 55//167
f 55//167 51//166 49//168
s 43
f 59//169 60//170 57//171
f 57//171 60//170 58//172
s 44
f 61//173 62//174 59//175
f 59//175 62//174 60//176
s 45
f 63//177 64//178 61//179
f 61//179 64//178 62//180
s 46
f 57//181 58//182 63//183
f 63//183 58//182 64//184
s 47
f 60//185 62//186 58//187
f 58//187 62//186 64//188
s 48
f 61//189 59//190 63//191
f 63//191 59//190 57//192
