# This file uses centimeters as units for non-parametric coordinates.

mtllib airshipScreen.mtl
g default
v -0.792397 0.189669 -0.520761
v -0.817747 0.334092 -0.577325
v -0.835200 0.502007 -0.616268
v -0.843532 0.640015 -0.634859
v -0.843476 0.796281 -0.634734
v -0.835045 0.934104 -0.615922
v -0.817472 1.102098 -0.576711
v -0.792019 1.246416 -0.519916
v -0.405087 0.170631 -0.753253
v -0.431828 0.320267 -0.812921
v -0.449241 0.494243 -0.851775
v -0.459176 0.637232 -0.873942
v -0.459118 0.799139 -0.873813
v -0.449080 0.941936 -0.851416
v -0.431543 1.115994 -0.812284
v -0.404694 1.265522 -0.752377
v -0.007078 0.161859 -0.961873
v -0.034983 0.313897 -1.024138
v -0.053463 0.490666 -1.065373
v -0.064329 0.635950 -1.089618
v -0.064269 0.800455 -1.089485
v -0.053299 0.945545 -1.065006
v -0.034692 1.122397 -1.023488
v -0.006678 1.274325 -0.960981
v 0.397994 0.164241 -1.135970
v 0.370414 0.315627 -1.197510
v 0.352349 0.491637 -1.237816
v 0.341770 0.636299 -1.261423
v 0.341829 0.800098 -1.261291
v 0.352513 0.944565 -1.237452
v 0.370703 1.120658 -1.196863
v 0.398391 1.271935 -1.135082
v 0.798755 0.173525 -1.282476
v 0.772304 0.322369 -1.341495
v 0.754991 0.495424 -1.380125
v 0.745315 0.637656 -1.401715
v 0.745373 0.798705 -1.401586
v 0.755151 0.940746 -1.379768
v 0.772588 1.113882 -1.340861
v 0.799145 1.262618 -1.281604
v 1.186458 0.190466 -1.403101
v 1.161194 0.334671 -1.459472
v 1.143762 0.502332 -1.498369
v 1.135505 0.640132 -1.516793
v 1.135561 0.796162 -1.516669
v 1.143917 0.933777 -1.498024
v 1.161469 1.101517 -1.458860
v 1.186836 1.245618 -1.402258
v -1.083786 0.154799 -0.196646
v -1.126406 0.215063 -0.291959
v -1.151124 0.353262 -0.346593
v -1.169459 0.512730 -0.387485
v -1.175435 0.643965 -0.400772
v -1.175382 0.792226 -0.400653
v -1.169312 0.923285 -0.387157
v -1.150863 1.082827 -0.346010
v -1.126046 1.220924 -0.291155
v -1.083383 1.281006 -0.195747
v -0.748273 0.124220 -0.413866
v -0.747849 1.311666 -0.412916
v -0.357373 0.101824 -0.641401
v -0.356932 1.334121 -0.640414
v 0.043475 0.091472 -0.847655
v 0.043924 1.344499 -0.846650
v 0.449696 0.094260 -1.023245
v 0.450144 1.341704 -1.022245
v 0.850201 0.105218 -1.173436
v 0.850641 1.330718 -1.172455
v 1.236648 0.125133 -1.299295
v 1.237074 1.310752 -1.298347
v 1.555020 0.147859 -1.390671
v 1.511480 0.209139 -1.487652
v 1.486881 0.348914 -1.542988
v 1.468773 0.510270 -1.583416
v 1.462330 0.643049 -1.597829
v 1.462384 0.793168 -1.597709
v 1.468921 0.925768 -1.583084
v 1.487145 1.087199 -1.542398
v 1.511844 1.226870 -1.486838
v 1.555427 1.287966 -1.389760
vt 0.435649 0.420368
vt 0.417350 0.456968
vt 0.419163 0.421659
vt 0.456522 0.420289
vt 0.437500 0.458333
vt 0.439252 0.420171
vt 0.477402 0.420196
vt 0.458333 0.458333
vt 0.460072 0.420145
vt 0.498164 0.420339
vt 0.479167 0.458333
vt 0.480997 0.420327
vt 0.520833 0.458333
vt 0.501795 0.420256
vt 0.519039 0.420256
vt 0.541667 0.458333
vt 0.522670 0.420340
vt 0.539836 0.420327
vt 0.562500 0.458333
vt 0.543431 0.420196
vt 0.560762 0.420144
vt 0.583333 0.458333
vt 0.564311 0.420289
vt 0.581581 0.420171
vt 0.603484 0.456968
vt 0.585184 0.420368
vt 0.601670 0.421659
vt 0.417350 0.498633
vt 0.417292 0.459585
vt 0.437500 0.500000
vt 0.458333 0.500000
vt 0.500000 0.458333
vt 0.479167 0.500000
vt 0.520833 0.500000
vt 0.541667 0.500000
vt 0.562500 0.500000
vt 0.583333 0.500000
vt 0.603483 0.498633
vt 0.603541 0.459585
vt 0.417347 0.540306
vt 0.417323 0.501313
vt 0.437500 0.541667
vt 0.458333 0.541667
vt 0.500000 0.500000
vt 0.479167 0.541667
vt 0.520833 0.541667
vt 0.541667 0.541667
vt 0.562500 0.541667
vt 0.583333 0.541667
vt 0.603486 0.540306
vt 0.603510 0.501313
vt 0.437500 0.583333
vt 0.417360 0.543054
vt 0.458333 0.583333
vt 0.479167 0.583333
vt 0.500000 0.583333
vt 0.500000 0.541667
vt 0.520833 0.583333
vt 0.541667 0.583333
vt 0.562500 0.583333
vt 0.603473 0.543054
vt 0.583333 0.583333
vt 0.437500 0.625000
vt 0.417422 0.584844
vt 0.458333 0.625000
vt 0.479167 0.625000
vt 0.500000 0.625000
vt 0.520833 0.625000
vt 0.541667 0.625000
vt 0.562500 0.625000
vt 0.603411 0.584844
vt 0.583333 0.625000
vt 0.437500 0.666667
vt 0.417496 0.626658
vt 0.458333 0.666667
vt 0.479167 0.666667
vt 0.500000 0.666667
vt 0.520833 0.666667
vt 0.541667 0.666667
vt 0.562500 0.666667
vt 0.603338 0.626658
vt 0.583333 0.666667
vt 0.435415 0.704163
vt 0.417595 0.668523
vt 0.456277 0.704221
vt 0.477180 0.704361
vt 0.497899 0.704132
vt 0.502035 0.704263
vt 0.522935 0.704130
vt 0.543652 0.704362
vt 0.564556 0.704221
vt 0.603239 0.668523
vt 0.585419 0.704162
vt 0.417361 0.581945
vt 0.603472 0.581945
vt 0.417383 0.623568
vt 0.603451 0.623568
vt 0.417420 0.665159
vt 0.603413 0.665159
vt 0.419590 0.702488
vt 0.439482 0.704370
vt 0.460288 0.704423
vt 0.481256 0.704154
vt 0.518798 0.704263
vt 0.539576 0.704153
vt 0.560546 0.704425
vt 0.581352 0.704370
vt 0.601244 0.702487
vn -0.332498 -0.857595 -0.392398
vn -0.332007 -0.858919 -0.389909
vn -0.332685 -0.857163 -0.393183
vn -0.539999 -0.390299 -0.745699
vn -0.539724 -0.388317 -0.746933
vn -0.540193 -0.391195 -0.745090
vn -0.557295 -0.260197 -0.788492
vn -0.554493 -0.248597 -0.794190
vn -0.558710 -0.266105 -0.785514
vn -0.565530 -0.115906 -0.816543
vn -0.570088 -0.136397 -0.810183
vn -0.563819 -0.108604 -0.818727
vn -0.576385 0.000900 -0.817178
vn -0.576385 0.000900 -0.817178
vn -0.576385 0.000900 -0.817178
vn -0.569889 0.137797 -0.810085
vn -0.565301 0.117300 -0.816502
vn -0.563664 0.109993 -0.818648
vn -0.554633 0.250015 -0.793647
vn -0.557424 0.261611 -0.787933
vn -0.558833 0.267516 -0.784947
vn -0.539417 0.389912 -0.746323
vn -0.539690 0.391893 -0.745087
vn -0.539883 0.392787 -0.744476
vn -0.331398 0.859794 -0.388497
vn -0.331905 0.858414 -0.391106
vn -0.332004 0.858011 -0.391905
vn -0.288503 -0.865110 -0.410305
vn -0.288395 -0.865484 -0.409592
vn -0.288505 -0.865014 -0.410507
vn -0.487892 -0.392493 -0.779687
vn -0.488378 -0.395883 -0.777666
vn -0.487702 -0.391302 -0.780403
vn -0.511212 -0.242206 -0.824620
vn -0.510095 -0.237798 -0.826592
vn -0.511596 -0.244198 -0.823794
vn -0.518478 -0.148694 -0.842064
vn -0.521073 -0.161692 -0.838057
vn -0.517614 -0.144504 -0.843323
vn -0.528209 0.000900 -0.849114
vn -0.528209 0.000900 -0.849114
vn -0.528209 0.000900 -0.849114
vn -0.520799 0.163900 -0.837798
vn -0.518218 0.150905 -0.841830
vn -0.517389 0.146697 -0.843083
vn -0.509903 0.239202 -0.826306
vn -0.511005 0.243702 -0.824308
vn -0.511503 0.245701 -0.823405
vn -0.488068 0.397474 -0.777049
vn -0.487584 0.394087 -0.779075
vn -0.487415 0.392812 -0.779824
vn -0.287706 0.866319 -0.408309
vn -0.287791 0.865972 -0.408987
vn -0.287884 0.865851 -0.409177
vn -0.243902 -0.869208 -0.430104
vn -0.243796 -0.869885 -0.428793
vn -0.243997 -0.868988 -0.430494
vn -0.432798 -0.401598 -0.807097
vn -0.433602 -0.406502 -0.804205
vn -0.432482 -0.399583 -0.808266
vn -0.459992 -0.239596 -0.854986
vn -0.461324 -0.244613 -0.852845
vn -0.459400 -0.237100 -0.856000
vn -0.469975 -0.169491 -0.866254
vn -0.471517 -0.176906 -0.863931
vn -0.469420 -0.167007 -0.867037
vn -0.479398 0.000900 -0.877597
vn -0.479398 0.000900 -0.877597
vn -0.479398 0.000900 -0.877597
vn -0.471402 0.178801 -0.863603
vn -0.469789 0.171396 -0.865980
vn -0.469314 0.168905 -0.866727
vn -0.461194 0.246097 -0.852489
vn -0.459905 0.241103 -0.854609
vn -0.459196 0.238598 -0.855693
vn -0.433320 0.408119 -0.803537
vn -0.432485 0.403186 -0.806472
vn -0.432205 0.401205 -0.807610
vn -0.243093 0.870773 -0.427387
vn -0.243294 0.870077 -0.428689
vn -0.243315 0.869855 -0.429127
vn -0.189899 -0.870896 -0.453298
vn -0.189603 -0.871112 -0.453006
vn -0.189586 -0.871136 -0.452967
vn -0.358395 -0.407395 -0.839989
vn -0.357614 -0.408816 -0.839632
vn -0.357294 -0.409394 -0.839487
vn -0.380005 -0.244403 -0.892112
vn -0.378892 -0.246595 -0.891982
vn -0.378404 -0.247603 -0.891910
vn -0.384307 -0.176803 -0.906117
vn -0.383418 -0.179108 -0.906042
vn -0.383107 -0.179903 -0.906016
vn -0.389594 0.000900 -0.920986
vn -0.389594 0.000900 -0.920986
vn -0.389594 0.000900 -0.920986
vn -0.383305 0.181002 -0.905713
vn -0.384197 0.178698 -0.905792
vn -0.382994 0.181797 -0.905685
vn -0.378811 0.248007 -0.891625
vn -0.379796 0.245897 -0.891790
vn -0.378279 0.249086 -0.891550
vn -0.357298 0.410397 -0.838995
vn -0.358111 0.409012 -0.839325
vn -0.356978 0.410975 -0.838848
vn -0.189003 0.871916 -0.451708
vn -0.189300 0.871700 -0.452000
vn -0.188899 0.871996 -0.451598
vn -0.152895 -0.868573 -0.471385
vn -0.152001 -0.869207 -0.470504
vn -0.151703 -0.869419 -0.470210
vn -0.305793 -0.399390 -0.864279
vn -0.303302 -0.403803 -0.863106
vn -0.302201 -0.405701 -0.862602
vn -0.323390 -0.238292 -0.915771
vn -0.322000 -0.241200 -0.915499
vn -0.321293 -0.242594 -0.915379
vn -0.326413 -0.166006 -0.930536
vn -0.323708 -0.172905 -0.930224
vn -0.322792 -0.175396 -0.930076
vn -0.328412 0.000900 -0.944534
vn -0.328412 0.000900 -0.944534
vn -0.328412 0.000900 -0.944534
vn -0.323602 0.174801 -0.929907
vn -0.326311 0.167906 -0.930231
vn -0.322595 0.177297 -0.929784
vn -0.321800 0.242600 -0.915200
vn -0.323303 0.239802 -0.915407
vn -0.321114 0.244110 -0.915039
vn -0.303081 0.405375 -0.862446
vn -0.305600 0.401000 -0.863601
vn -0.302005 0.407306 -0.861913
vn -0.151396 0.870078 -0.469088
vn -0.152304 0.869421 -0.470011
vn -0.151196 0.870275 -0.468787
vn -0.114501 -0.864904 -0.488702
vn -0.114197 -0.865179 -0.488288
vn -0.114104 -0.865231 -0.488217
vn -0.257203 -0.391705 -0.883410
vn -0.255802 -0.394203 -0.882706
vn -0.255208 -0.395212 -0.882427
vn -0.275596 -0.242097 -0.930288
vn -0.277804 -0.237903 -0.930713
vn -0.279004 -0.235704 -0.930914
vn -0.284091 -0.147595 -0.947369
vn -0.279892 -0.158396 -0.946874
vn -0.278295 -0.162297 -0.946684
vn -0.282886 0.000900 -0.959153
vn -0.282886 0.000900 -0.959153
vn -0.282886 0.000900 -0.959153
vn -0.279597 0.160598 -0.946591
vn -0.283899 0.149699 -0.947096
vn -0.278090 0.164494 -0.946366
vn -0.277690 0.239391 -0.930366
vn -0.275513 0.243511 -0.929943
vn -0.278799 0.237199 -0.930596
vn -0.255599 0.395698 -0.882095
vn -0.256991 0.393286 -0.882769
vn -0.254901 0.396801 -0.881802
vn -0.113604 0.866029 -0.486916
vn -0.114006 0.865746 -0.487326
vn -0.113501 0.866106 -0.486803
vn -0.083100 -0.859403 -0.504501
vn -0.081800 -0.860405 -0.503003
vn -0.081296 -0.860760 -0.502477
vn -0.211201 -0.390602 -0.896005
vn -0.212297 -0.388895 -0.896488
vn -0.212991 -0.387883 -0.896762
vn -0.232398 -0.255397 -0.938490
vn -0.236805 -0.248205 -0.939318
vn -0.239993 -0.242993 -0.939871
vn -0.245890 -0.122995 -0.961462
vn -0.239798 -0.136399 -0.961193
vn -0.236994 -0.142696 -0.960974
vn -0.240700 0.000900 -0.970599
vn -0.240700 0.000900 -0.970599
vn -0.240700 0.000900 -0.970599
vn -0.239607 0.137904 -0.961026
vn -0.245704 0.124502 -0.961316
vn -0.236799 0.144200 -0.960798
vn -0.236787 0.249987 -0.938850
vn -0.232405 0.257106 -0.938022
vn -0.240000 0.244800 -0.939400
vn -0.212088 0.390478 -0.895849
vn -0.210896 0.392192 -0.895382
vn -0.212714 0.389426 -0.896159
vn -0.081202 0.861216 -0.501710
vn -0.082601 0.860210 -0.503206
vn -0.080701 0.861614 -0.501108
vn -0.332498 -0.857595 -0.392398
vn -0.331908 -0.859320 -0.389109
vn -0.332007 -0.858919 -0.389909
vn -0.539999 -0.390299 -0.745699
vn -0.539578 -0.387484 -0.747470
vn -0.539724 -0.388317 -0.746933
vn -0.557295 -0.260197 -0.788492
vn -0.553078 -0.242790 -0.796968
vn -0.554493 -0.248597 -0.794190
vn -0.565530 -0.115906 -0.816543
vn -0.571497 -0.143299 -0.807996
vn -0.570088 -0.136397 -0.810183
vn -0.576385 0.000900 -0.817178
vn -0.576385 0.000900 -0.817178
vn -0.576385 0.000900 -0.817178
vn -0.569889 0.137797 -0.810085
vn -0.571285 0.144796 -0.807879
vn -0.565301 0.117300 -0.816502
vn -0.554633 0.250015 -0.793647
vn -0.553223 0.244210 -0.796433
vn -0.557424 0.261611 -0.787933
vn -0.539417 0.389912 -0.746323
vn -0.539293 0.388995 -0.746891
vn -0.539690 0.391893 -0.745087
vn -0.331398 0.859794 -0.388497
vn -0.331196 0.860189 -0.387795
vn -0.331905 0.858414 -0.391106
vn -0.288503 -0.865110 -0.410305
vn -0.288290 -0.865570 -0.409486
vn -0.288395 -0.865484 -0.409592
vn -0.487892 -0.392493 -0.779687
vn -0.488526 -0.397121 -0.776941
vn -0.488378 -0.395883 -0.777666
vn -0.511212 -0.242206 -0.824620
vn -0.509629 -0.235814 -0.827448
vn -0.510095 -0.237798 -0.826592
vn -0.518478 -0.148694 -0.842064
vn -0.521809 -0.165703 -0.836814
vn -0.521073 -0.161692 -0.838057
vn -0.528209 0.000900 -0.849114
vn -0.528209 0.000900 -0.849114
vn -0.528209 0.000900 -0.849114
vn -0.520799 0.163900 -0.837798
vn -0.521603 0.167901 -0.836504
vn -0.518218 0.150905 -0.841830
vn -0.509903 0.239202 -0.826306
vn -0.509501 0.237301 -0.827102
vn -0.511005 0.243702 -0.824308
vn -0.488068 0.397474 -0.777049
vn -0.488214 0.398711 -0.776322
vn -0.487584 0.394087 -0.779075
vn -0.287706 0.866319 -0.408309
vn -0.287705 0.866415 -0.408107
vn -0.287791 0.865972 -0.408987
vn -0.243902 -0.869208 -0.430104
vn -0.243701 -0.870104 -0.428402
vn -0.243796 -0.869885 -0.428793
vn -0.432798 -0.401598 -0.807097
vn -0.433911 -0.408510 -0.803020
vn -0.433602 -0.406502 -0.804205
vn -0.459992 -0.239596 -0.854986
vn -0.461996 -0.246998 -0.851793
vn -0.461324 -0.244613 -0.852845
vn -0.469975 -0.169491 -0.866254
vn -0.472107 -0.179303 -0.863114
vn -0.471517 -0.176906 -0.863931
vn -0.479398 0.000900 -0.877597
vn -0.479398 0.000900 -0.877597
vn -0.479398 0.000900 -0.877597
vn -0.471402 0.178801 -0.863603
vn -0.471904 0.181302 -0.862807
vn -0.469789 0.171396 -0.865980
vn -0.461194 0.246097 -0.852489
vn -0.461785 0.248492 -0.851473
vn -0.459905 0.241103 -0.854609
vn -0.433320 0.408119 -0.803537
vn -0.433592 0.410092 -0.802385
vn -0.432485 0.403186 -0.806472
vn -0.243093 0.870773 -0.427387
vn -0.243092 0.870971 -0.426986
vn -0.243294 0.870077 -0.428689
vn -0.189899 -0.870896 -0.453298
vn -0.190003 -0.870816 -0.453408
vn -0.189603 -0.871112 -0.453006
vn -0.358395 -0.407395 -0.839989
vn -0.358700 -0.406900 -0.840099
vn -0.357614 -0.408816 -0.839632
vn -0.380005 -0.244403 -0.892112
vn -0.380491 -0.243395 -0.892180
vn -0.378892 -0.246595 -0.891982
vn -0.384307 -0.176803 -0.906117
vn -0.384617 -0.176008 -0.906141
vn -0.383418 -0.179108 -0.906042
vn -0.389594 0.000900 -0.920986
vn -0.389594 0.000900 -0.920986
vn -0.389594 0.000900 -0.920986
vn -0.383305 0.181002 -0.905713
vn -0.384507 0.177903 -0.905817
vn -0.384197 0.178698 -0.905792
vn -0.378811 0.248007 -0.891625
vn -0.380402 0.244902 -0.891806
vn -0.379796 0.245897 -0.891790
vn -0.357298 0.410397 -0.838995
vn -0.358400 0.408400 -0.839500
vn -0.358111 0.409012 -0.839325
vn -0.189003 0.871916 -0.451708
vn -0.189404 0.871620 -0.452111
vn -0.189300 0.871700 -0.452000
vn -0.152895 -0.868573 -0.471385
vn -0.153095 -0.868374 -0.471686
vn -0.152001 -0.869207 -0.470504
vn -0.305793 -0.399390 -0.864279
vn -0.306901 -0.397401 -0.864803
vn -0.303302 -0.403803 -0.863106
vn -0.323390 -0.238292 -0.915771
vn -0.324184 -0.236888 -0.915854
vn -0.322000 -0.241200 -0.915499
vn -0.326413 -0.166006 -0.930536
vn -0.327410 -0.163505 -0.930628
vn -0.323708 -0.172905 -0.930224
vn -0.328412 0.000900 -0.944534
vn -0.328412 0.000900 -0.944534
vn -0.328412 0.000900 -0.944534
vn -0.323602 0.174801 -0.929907
vn -0.327310 0.165405 -0.930328
vn -0.326311 0.167906 -0.930231
vn -0.321800 0.242600 -0.915200
vn -0.324008 0.238406 -0.915523
vn -0.323303 0.239802 -0.915407
vn -0.303081 0.405375 -0.862446
vn -0.306710 0.399013 -0.864128
vn -0.305600 0.401000 -0.863601
vn -0.151396 0.870078 -0.469088
vn -0.152602 0.869210 -0.470305
vn -0.152304 0.869421 -0.470011
vn -0.114501 -0.864904 -0.488702
vn -0.114604 -0.864827 -0.488815
vn -0.114197 -0.865179 -0.488288
vn -0.257203 -0.391705 -0.883410
vn -0.257899 -0.390599 -0.883697
vn -0.255802 -0.394203 -0.882706
vn -0.275596 -0.242097 -0.930288
vn -0.274391 -0.244292 -0.930070
vn -0.277804 -0.237903 -0.930713
vn -0.284091 -0.147595 -0.947369
vn -0.285704 -0.143502 -0.947513
vn -0.279892 -0.158396 -0.946874
vn -0.282886 0.000900 -0.959153
vn -0.282886 0.000900 -0.959153
vn -0.282886 0.000900 -0.959153
vn -0.279597 0.160598 -0.946591
vn -0.285510 0.145705 -0.947235
vn -0.283899 0.149699 -0.947096
vn -0.277690 0.239391 -0.930366
vn -0.274300 0.245800 -0.929700
vn -0.275513 0.243511 -0.929943
vn -0.255599 0.395698 -0.882095
vn -0.257594 0.392191 -0.883080
vn -0.256991 0.393286 -0.882769
vn -0.113604 0.866029 -0.486916
vn -0.114094 0.865652 -0.487473
vn -0.114006 0.865746 -0.487326
vn -0.083100 -0.859403 -0.504501
vn -0.083702 -0.858925 -0.505215
vn -0.081800 -0.860405 -0.503003
vn -0.211201 -0.390602 -0.896005
vn -0.210498 -0.391697 -0.895692
vn -0.212297 -0.388895 -0.896488
vn -0.232398 -0.255397 -0.938490
vn -0.229109 -0.260710 -0.937838
vn -0.236805 -0.248205 -0.939318
vn -0.245890 -0.122995 -0.961462
vn -0.248808 -0.116404 -0.961532
vn -0.239798 -0.136399 -0.961193
vn -0.240700 0.000900 -0.970599
vn -0.240700 0.000900 -0.970599
vn -0.240700 0.000900 -0.970599
vn -0.239607 0.137904 -0.961026
vn -0.248598 0.117999 -0.961392
vn -0.245704 0.124502 -0.961316
vn -0.236787 0.249987 -0.938850
vn -0.229093 0.262392 -0.937372
vn -0.232405 0.257106 -0.938022
vn -0.212088 0.390478 -0.895849
vn -0.210296 0.393193 -0.895084
vn -0.210896 0.392192 -0.895382
vn -0.081202 0.861216 -0.501710
vn -0.083101 0.859810 -0.503806
vn -0.082601 0.860210 -0.503206
s off
g polySurface14
f 50/1/1 59/2/2 49/3/3
f 51/4/4 1/5/5 50/6/6
f 52/7/7 2/8/8 51/9/9
f 53/10/10 3/11/11 52/12/12
f 5/13/13 53/14/14 54/15/15
f 6/16/16 54/17/17 55/18/18
f 7/19/19 55/20/20 56/21/21
f 8/22/22 56/23/23 57/24/24
f 60/25/25 57/26/26 58/27/27
f 1/5/28 61/28/29 59/29/30
f 2/8/31 9/30/32 1/5/33
f 3/11/34 10/31/35 2/8/36
f 4/32/37 11/33/38 3/11/39
f 13/34/40 4/32/41 5/13/42
f 14/35/43 5/13/44 6/16/45
f 15/36/46 6/16/47 7/19/48
f 16/37/49 7/19/50 8/22/51
f 62/38/52 8/22/53 60/39/54
f 9/30/55 63/40/56 61/41/57
f 10/31/58 17/42/59 9/30/60
f 11/33/61 18/43/62 10/31/63
f 12/44/64 19/45/65 11/33/66
f 21/46/67 12/44/68 13/34/69
f 22/47/70 13/34/71 14/35/72
f 23/48/73 14/35/74 15/36/75
f 24/49/76 15/36/77 16/37/78
f 64/50/79 16/37/80 62/51/81
f 25/52/82 63/53/83 17/42/84
f 26/54/85 17/42/86 18/43/87
f 27/55/88 18/43/89 19/45/90
f 28/56/91 19/45/92 20/57/93
f 21/46/94 28/56/95 20/57/96
f 22/47/97 29/58/98 21/46/99
f 23/48/100 30/59/101 22/47/102
f 24/49/103 31/60/104 23/48/105
f 64/61/106 32/62/107 24/49/108
f 33/63/109 65/64/110 25/52/111
f 34/65/112 25/52/113 26/54/114
f 35/66/115 26/54/116 27/55/117
f 36/67/118 27/55/119 28/56/120
f 29/58/121 36/67/122 28/56/123
f 30/59/124 37/68/125 29/58/126
f 31/60/127 38/69/128 30/59/129
f 32/62/130 39/70/131 31/60/132
f 66/71/133 40/72/134 32/62/135
f 41/73/136 67/74/137 33/63/138
f 42/75/139 33/63/140 34/65/141
f 43/76/142 34/65/143 35/66/144
f 44/77/145 35/66/146 36/67/147
f 37/68/148 44/77/149 36/67/150
f 38/69/151 45/78/152 37/68/153
f 39/70/154 46/79/155 38/69/156
f 40/72/157 47/80/158 39/70/159
f 68/81/160 48/82/161 40/72/162
f 72/83/163 69/84/164 41/73/165
f 73/85/166 41/73/167 42/75/168
f 74/86/169 42/75/170 43/76/171
f 75/87/172 43/76/173 44/77/174
f 45/78/175 75/88/176 44/77/177
f 46/79/178 76/89/179 45/78/180
f 47/80/181 77/90/182 46/79/183
f 48/82/184 78/91/185 47/80/186
f 70/92/187 79/93/188 48/82/189
f 50/1/190 1/5/191 59/2/192
f 51/4/193 2/8/194 1/5/195
f 52/7/196 3/11/197 2/8/198
f 53/10/199 4/32/200 3/11/201
f 5/13/202 4/32/203 53/14/204
f 6/16/205 5/13/206 54/17/207
f 7/19/208 6/16/209 55/20/210
f 8/22/211 7/19/212 56/23/213
f 60/25/214 8/22/215 57/26/216
f 1/5/217 9/30/218 61/28/219
f 2/8/220 10/31/221 9/30/222
f 3/11/223 11/33/224 10/31/225
f 4/32/226 12/44/227 11/33/228
f 13/34/229 12/44/230 4/32/231
f 14/35/232 13/34/233 5/13/234
f 15/36/235 14/35/236 6/16/237
f 16/37/238 15/36/239 7/19/240
f 62/38/241 16/37/242 8/22/243
f 9/30/244 17/42/245 63/40/246
f 10/31/247 18/43/248 17/42/249
f 11/33/250 19/45/251 18/43/252
f 12/44/253 20/57/254 19/45/255
f 21/46/256 20/57/257 12/44/258
f 22/47/259 21/46/260 13/34/261
f 23/48/262 22/47/263 14/35/264
f 24/49/265 23/48/266 15/36/267
f 64/50/268 24/49/269 16/37/270
f 25/52/271 65/94/272 63/53/273
f 26/54/274 25/52/275 17/42/276
f 27/55/277 26/54/278 18/43/279
f 28/56/280 27/55/281 19/45/282
f 21/46/283 29/58/284 28/56/285
f 22/47/286 30/59/287 29/58/288
f 23/48/289 31/60/290 30/59/291
f 24/49/292 32/62/293 31/60/294
f 64/61/295 66/95/296 32/62/297
f 33/63/298 67/96/299 65/64/300
f 34/65/301 33/63/302 25/52/303
f 35/66/304 34/65/305 26/54/306
f 36/67/307 35/66/308 27/55/309
f 29/58/310 37/68/311 36/67/312
f 30/59/313 38/69/314 37/68/315
f 31/60/316 39/70/317 38/69/318
f 32/62/319 40/72/320 39/70/321
f 66/71/322 68/97/323 40/72/324
f 41/73/325 69/98/326 67/74/327
f 42/75/328 41/73/329 33/63/330
f 43/76/331 42/75/332 34/65/333
f 44/77/334 43/76/335 35/66/336
f 37/68/337 45/78/338 44/77/339
f 38/69/340 46/79/341 45/78/342
f 39/70/343 47/80/344 46/79/345
f 40/72/346 48/82/347 47/80/348
f 68/81/349 70/99/350 48/82/351
f 72/83/352 71/100/353 69/84/354
f 73/85/355 72/101/356 41/73/357
f 74/86/358 73/102/359 42/75/360
f 75/87/361 74/103/362 43/76/363
f 45/78/364 76/104/365 75/88/366
f 46/79/367 77/105/368 76/89/369
f 47/80/370 78/106/371 77/90/372
f 48/82/373 79/107/374 78/91/375
f 70/92/376 80/108/377 79/93/378
