# This file uses centimeters as units for non-parametric coordinates.

mtllib screen.mtl
g default
v -8.890924 1.805236 1.480709
v -8.890924 9.237907 1.384599
v -7.957315 1.805236 1.293367
v -7.023706 1.805236 1.081535
v -6.090097 1.805236 0.873189
v -5.156488 1.805236 0.695802
v -4.222879 1.805236 0.561475
v -3.289271 1.805236 0.464463
v -2.355662 1.805236 0.398020
v -1.422053 1.805236 0.355461
v -0.488444 1.805236 0.332801
v -0.488445 9.237907 0.236691
v -1.422054 9.237907 0.259352
v -2.355663 9.237907 0.301910
v -3.289272 9.237907 0.368353
v -4.222880 9.237907 0.465365
v -5.156489 9.237907 0.599692
v -6.090098 9.237907 0.777079
v -7.023707 9.237907 0.985425
v -7.957315 9.237907 1.197258
v -8.890924 1.805107 1.470710
v -8.890924 9.237779 1.374600
v -7.957315 1.805107 1.283368
v -7.023706 1.805107 1.071536
v -6.090097 1.805107 0.863190
v -5.156488 1.805107 0.685803
v -4.222879 1.805107 0.551476
v -3.289271 1.805107 0.454464
v -2.355662 1.805107 0.388021
v -1.422053 1.805107 0.345462
v -0.488444 1.805107 0.322802
v -0.488445 9.237779 0.226692
v -1.422054 9.237779 0.249353
v -2.355663 9.237779 0.291911
v -3.289272 9.237779 0.358354
v -4.222880 9.237779 0.455366
v -5.156489 9.237779 0.589694
v -6.090098 9.237779 0.767080
v -7.023707 9.237779 0.975426
v -7.957315 9.237779 1.187258
v 8.890924 1.805236 1.480709
v 8.890924 9.237907 1.384599
v 7.957315 1.805236 1.293367
v 7.023706 1.805236 1.081535
v 6.090097 1.805236 0.873189
v 5.156488 1.805236 0.695802
v 4.222879 1.805236 0.561475
v 3.289271 1.805236 0.464463
v 2.355662 1.805236 0.398020
v 1.422053 1.805236 0.355461
v 0.488444 1.805236 0.332801
v 0.488445 9.237907 0.236691
v 1.422054 9.237907 0.259352
v 2.355663 9.237907 0.301910
v 3.289272 9.237907 0.368353
v 4.222880 9.237907 0.465365
v 5.156489 9.237907 0.599692
v 6.090098 9.237907 0.777079
v 7.023707 9.237907 0.985425
v 7.957315 9.237907 1.197258
v 8.890924 1.805107 1.470710
v 8.890924 9.237779 1.374600
v 7.957315 1.805107 1.283368
v 7.023706 1.805107 1.071536
v 6.090097 1.805107 0.863190
v 5.156488 1.805107 0.685803
v 4.222879 1.805107 0.551476
v 3.289271 1.805107 0.454464
v 2.355662 1.805107 0.388021
v 1.422053 1.805107 0.345462
v 0.488444 1.805107 0.322802
v 0.488445 9.237779 0.226692
v 1.422054 9.237779 0.249353
v 2.355663 9.237779 0.291911
v 3.289272 9.237779 0.358354
v 4.222880 9.237779 0.455366
v 5.156489 9.237779 0.589694
v 6.090098 9.237779 0.767080
v 7.023707 9.237779 0.975426
v 7.957315 9.237779 1.187258
v 0.000000 1.805236 0.331214
v 0.000000 9.237907 0.235105
v 0.000000 1.805107 0.321216
v 0.000000 9.237779 0.225106
vt 0.419886 0.418964
vt 0.005450 0.418912
vt 0.005450 0.418355
vt 0.419886 0.418407
vt 0.707207 0.482640
vt 0.707207 0.483198
vt 0.292793 0.483215
vt 0.292793 0.482657
vt 0.004279 0.450714
vt 0.056335 0.461152
vt 0.056335 0.461709
vt 0.004279 0.451272
vt 0.108391 0.472955
vt 0.108391 0.473512
vt 0.160447 0.484564
vt 0.160447 0.485121
vt 0.212502 0.494446
vt 0.212502 0.495004
vt 0.264558 0.501928
vt 0.264558 0.502486
vt 0.316612 0.507329
vt 0.316612 0.507887
vt 0.368667 0.511026
vt 0.368667 0.511584
vt 0.420722 0.513391
vt 0.420722 0.513949
vt 0.472776 0.514647
vt 0.472776 0.515204
vt 0.500010 0.514731
vt 0.500010 0.515289
vt 0.527243 0.514639
vt 0.527243 0.515196
vt 0.579297 0.513367
vt 0.579297 0.513925
vt 0.631351 0.510987
vt 0.631351 0.511544
vt 0.683404 0.507274
vt 0.683404 0.507832
vt 0.735458 0.501858
vt 0.735458 0.502415
vt 0.787511 0.494360
vt 0.787511 0.494918
vt 0.839563 0.484462
vt 0.839563 0.485020
vt 0.891616 0.472838
vt 0.891616 0.473395
vt 0.943668 0.461019
vt 0.943668 0.461577
vt 0.995721 0.450566
vt 0.995721 0.451124
vt 0.056341 0.504835
vt 0.004290 0.515288
vt 0.004290 0.514731
vt 0.056341 0.504278
vt 0.108392 0.493017
vt 0.108392 0.492459
vt 0.160444 0.481393
vt 0.160444 0.480835
vt 0.212495 0.471495
vt 0.212495 0.470937
vt 0.264547 0.463998
vt 0.264547 0.463440
vt 0.316599 0.458581
vt 0.316599 0.458023
vt 0.368652 0.454869
vt 0.368652 0.454311
vt 0.420705 0.452488
vt 0.420705 0.451931
vt 0.472757 0.451217
vt 0.472757 0.450659
vt 0.499990 0.451124
vt 0.499990 0.450567
vt 0.527223 0.450651
vt 0.527223 0.451209
vt 0.579277 0.451907
vt 0.579277 0.452464
vt 0.631330 0.454272
vt 0.631330 0.454829
vt 0.683384 0.457969
vt 0.683384 0.458526
vt 0.735437 0.463370
vt 0.735438 0.463927
vt 0.787492 0.470851
vt 0.787492 0.471409
vt 0.839546 0.480734
vt 0.839546 0.481291
vt 0.891601 0.492342
vt 0.891601 0.492900
vt 0.943656 0.504145
vt 0.943656 0.504703
vt 0.995710 0.514582
vt 0.995710 0.515140
vt -0.001329 0.275280
vt 0.051760 0.275404
vt 0.051848 0.689833
vt -0.001242 0.689710
vt 0.105134 0.275546
vt 0.105222 0.689975
vt 0.158466 0.275685
vt 0.158554 0.690114
vt 0.211449 0.275801
vt 0.211536 0.690230
vt 0.264036 0.275887
vt 0.264124 0.690316
vt 0.316368 0.275946
vt 0.316456 0.690375
vt 0.368551 0.275983
vt 0.368639 0.690412
vt 0.420657 0.276002
vt 0.420745 0.690431
vt 0.472724 0.276008
vt 0.472812 0.690437
vt 0.499956 0.276003
vt 0.500044 0.690432
vt 0.527189 0.275996
vt 0.527276 0.690425
vt 0.579256 0.275969
vt 0.579343 0.690398
vt 0.631361 0.275927
vt 0.631449 0.690356
vt 0.683544 0.275868
vt 0.683632 0.690297
vt 0.735876 0.275787
vt 0.735964 0.690216
vt 0.788464 0.275679
vt 0.788551 0.690108
vt 0.841446 0.275540
vt 0.841534 0.689969
vt 0.894778 0.275378
vt 0.894866 0.689808
vt 0.948152 0.275214
vt 0.948240 0.689644
vt 1.001241 0.275068
vt 1.001329 0.689497
vt -0.001254 0.690756
vt -0.001316 0.276327
vt 0.051773 0.276184
vt 0.051835 0.690613
vt 0.105147 0.276023
vt 0.105209 0.690452
vt 0.158479 0.275865
vt 0.158541 0.690294
vt 0.211461 0.275729
vt 0.211524 0.690158
vt 0.264049 0.275624
vt 0.264111 0.690053
vt 0.316381 0.275546
vt 0.316443 0.689976
vt 0.368564 0.275491
vt 0.368626 0.689920
vt 0.420669 0.275452
vt 0.420732 0.689881
vt 0.472736 0.275428
vt 0.472799 0.689857
vt 0.499969 0.275423
vt 0.500031 0.689852
vt 0.527264 0.689849
vt 0.527201 0.275420
vt 0.579331 0.689857
vt 0.579268 0.275428
vt 0.631436 0.689880
vt 0.631374 0.275451
vt 0.683619 0.689920
vt 0.683557 0.275491
vt 0.735951 0.689982
vt 0.735889 0.275553
vt 0.788539 0.690071
vt 0.788476 0.275642
vt 0.841521 0.690191
vt 0.841459 0.275762
vt 0.894853 0.690333
vt 0.894791 0.275904
vt 0.948228 0.690478
vt 0.948165 0.276049
vt 1.001317 0.690605
vt 1.001254 0.276176
vn 0.196696 0.012700 0.980382
vn 0.209007 0.012600 0.977833
vn 0.196696 0.012700 0.980382
vn 0.209007 0.012600 0.977833
vn 0.209007 0.012600 0.977833
vn 0.219507 0.012600 0.975530
vn 0.209007 0.012600 0.977833
vn 0.219507 0.012600 0.975530
vn 0.219507 0.012600 0.975530
vn 0.202308 0.012701 0.979240
vn 0.219507 0.012600 0.975530
vn 0.202192 0.012700 0.979263
vn 0.202308 0.012701 0.979240
vn 0.164596 0.012800 0.986278
vn 0.202192 0.012700 0.979263
vn 0.164499 0.012800 0.986294
vn 0.164596 0.012800 0.986278
vn 0.122904 0.012800 0.992336
vn 0.164499 0.012800 0.986294
vn 0.122904 0.012800 0.992336
vn 0.122904 0.012800 0.992336
vn 0.087201 0.012900 0.996107
vn 0.122904 0.012800 0.992336
vn 0.087201 0.012900 0.996107
vn 0.087201 0.012900 0.996107
vn 0.058301 0.012900 0.998216
vn 0.087201 0.012900 0.996107
vn 0.058301 0.012900 0.998216
vn 0.058301 0.012900 0.998216
vn 0.034900 0.012900 0.999308
vn 0.058301 0.012900 0.998216
vn 0.034900 0.012900 0.999308
vn 0.034900 0.012900 0.999308
vn 0.013800 0.012900 0.999822
vn 0.034900 0.012900 0.999308
vn 0.013800 0.012900 0.999822
vn -0.196696 -0.012700 -0.980382
vn -0.196696 -0.012700 -0.980382
vn -0.209007 -0.012600 -0.977833
vn -0.209007 -0.012600 -0.977833
vn -0.209007 -0.012600 -0.977833
vn -0.209007 -0.012600 -0.977833
vn -0.219507 -0.012600 -0.975530
vn -0.219507 -0.012600 -0.975530
vn -0.219507 -0.012600 -0.975530
vn -0.219507 -0.012600 -0.975530
vn -0.202308 -0.012701 -0.979240
vn -0.202192 -0.012700 -0.979263
vn -0.202308 -0.012701 -0.979240
vn -0.202192 -0.012700 -0.979263
vn -0.164596 -0.012800 -0.986278
vn -0.164499 -0.012800 -0.986294
vn -0.164596 -0.012800 -0.986278
vn -0.164499 -0.012800 -0.986294
vn -0.122904 -0.012800 -0.992336
vn -0.122904 -0.012800 -0.992336
vn -0.122904 -0.012800 -0.992336
vn -0.122904 -0.012800 -0.992336
vn -0.087201 -0.012900 -0.996107
vn -0.087201 -0.012900 -0.996107
vn -0.087201 -0.012900 -0.996107
vn -0.087201 -0.012900 -0.996107
vn -0.058301 -0.012900 -0.998216
vn -0.058301 -0.012900 -0.998216
vn -0.058301 -0.012900 -0.998216
vn -0.058301 -0.012900 -0.998216
vn -0.034900 -0.012900 -0.999308
vn -0.034900 -0.012900 -0.999308
vn -0.034900 -0.012900 -0.999308
vn -0.034900 -0.012900 -0.999308
vn -0.013800 -0.012900 -0.999822
vn -0.013800 -0.012900 -0.999822
vn -1.000000 0.000000 0.000000
vn -1.000000 0.000000 0.000000
vn -1.000000 0.000000 0.000000
vn -1.000000 0.000000 0.000000
vn -0.002600 0.999913 -0.012900
vn -0.002700 0.999913 -0.012900
vn -0.002600 0.999913 -0.012900
vn -0.002800 0.999913 -0.012900
vn 0.002600 -0.999913 0.012900
vn 0.002600 -0.999913 0.012900
vn 0.002700 -0.999913 0.012900
vn 0.002800 -0.999913 0.012900
vn 0.002700 -0.999913 0.012900
vn 0.002800 -0.999913 0.012900
vn 0.002900 -0.999913 0.012900
vn 0.002900 -0.999913 0.012900
vn 0.002900 -0.999913 0.012900
vn 0.002900 -0.999913 0.012900
vn 0.002700 -0.999913 0.012900
vn 0.002600 -0.999913 0.012900
vn 0.002700 -0.999913 0.012900
vn 0.002600 -0.999913 0.012900
vn 0.002200 -0.999914 0.012900
vn 0.002100 -0.999915 0.012900
vn 0.002200 -0.999914 0.012900
vn 0.002100 -0.999915 0.012900
vn 0.001600 -0.999916 0.012900
vn 0.001600 -0.999916 0.012900
vn 0.001600 -0.999916 0.012900
vn 0.001600 -0.999916 0.012900
vn 0.001100 -0.999916 0.012900
vn 0.001100 -0.999916 0.012900
vn 0.001100 -0.999916 0.012900
vn 0.001100 -0.999916 0.012900
vn 0.000800 -0.999917 0.012900
vn 0.000700 -0.999917 0.012900
vn 0.000800 -0.999917 0.012900
vn 0.000700 -0.999917 0.012900
vn 0.000500 -0.999917 0.012900
vn 0.000400 -0.999917 0.012900
vn 0.000500 -0.999917 0.012900
vn 0.000400 -0.999917 0.012900
vn 0.000200 -0.999917 0.012900
vn 0.000200 -0.999917 0.012900
vn 0.000000 -0.999917 0.012900
vn 0.000200 -0.999917 0.012900
vn 0.000000 -0.999917 0.012900
vn 0.000200 -0.999917 0.012900
vn -0.000500 0.999917 -0.012900
vn -0.000200 0.999917 -0.012900
vn -0.000400 0.999917 -0.012900
vn -0.000200 0.999917 -0.012900
vn -0.000800 0.999917 -0.012900
vn -0.000500 0.999917 -0.012900
vn -0.000700 0.999917 -0.012900
vn -0.000400 0.999917 -0.012900
vn -0.001100 0.999915 -0.013000
vn -0.000800 0.999917 -0.012900
vn -0.001100 0.999915 -0.013000
vn -0.000700 0.999917 -0.012900
vn -0.001600 0.999916 -0.012900
vn -0.001100 0.999915 -0.013000
vn -0.001600 0.999916 -0.012900
vn -0.001100 0.999915 -0.013000
vn -0.002200 0.999914 -0.012900
vn -0.001600 0.999916 -0.012900
vn -0.002100 0.999915 -0.012900
vn -0.001600 0.999916 -0.012900
vn -0.002700 0.999913 -0.012900
vn -0.002200 0.999914 -0.012900
vn -0.002600 0.999913 -0.012900
vn -0.002100 0.999915 -0.012900
vn -0.002900 0.999913 -0.012900
vn -0.002700 0.999913 -0.012900
vn -0.002900 0.999913 -0.012900
vn -0.002600 0.999913 -0.012900
vn -0.002700 0.999913 -0.012900
vn -0.002900 0.999913 -0.012900
vn -0.002800 0.999913 -0.012900
vn -0.002900 0.999913 -0.012900
vn -0.013800 -0.012900 -0.999822
vn -0.013800 -0.012900 -0.999822
vn 0.000000 -0.012900 -0.999917
vn 0.000000 -0.012900 -0.999917
vn -0.000200 0.999917 -0.012900
vn 0.000000 0.999917 -0.012900
vn -0.000200 0.999917 -0.012900
vn 0.000000 0.999917 -0.012900
vn 0.013800 0.012900 0.999822
vn 0.000000 0.012900 0.999917
vn 0.013800 0.012900 0.999822
vn 0.000000 0.012900 0.999917
vn -0.196696 0.012700 0.980382
vn -0.196696 0.012700 0.980382
vn -0.209007 0.012600 0.977833
vn -0.209007 0.012600 0.977833
vn -0.209007 0.012600 0.977833
vn -0.209007 0.012600 0.977833
vn -0.219507 0.012600 0.975530
vn -0.219507 0.012600 0.975530
vn -0.219507 0.012600 0.975530
vn -0.219507 0.012600 0.975530
vn -0.202308 0.012701 0.979240
vn -0.202192 0.012700 0.979263
vn -0.202308 0.012701 0.979240
vn -0.202192 0.012700 0.979263
vn -0.164596 0.012800 0.986278
vn -0.164499 0.012800 0.986294
vn -0.164596 0.012800 0.986278
vn -0.164499 0.012800 0.986294
vn -0.122904 0.012800 0.992336
vn -0.122904 0.012800 0.992336
vn -0.122904 0.012800 0.992336
vn -0.122904 0.012800 0.992336
vn -0.087201 0.012900 0.996107
vn -0.087201 0.012900 0.996107
vn -0.087201 0.012900 0.996107
vn -0.087201 0.012900 0.996107
vn -0.058301 0.012900 0.998216
vn -0.058301 0.012900 0.998216
vn -0.058301 0.012900 0.998216
vn -0.058301 0.012900 0.998216
vn -0.034900 0.012900 0.999308
vn -0.034900 0.012900 0.999308
vn -0.034900 0.012900 0.999308
vn -0.034900 0.012900 0.999308
vn -0.013800 0.012900 0.999822
vn -0.013800 0.012900 0.999822
vn 0.196696 -0.012700 -0.980382
vn 0.209007 -0.012600 -0.977833
vn 0.196696 -0.012700 -0.980382
vn 0.209007 -0.012600 -0.977833
vn 0.209007 -0.012600 -0.977833
vn 0.219507 -0.012600 -0.975530
vn 0.209007 -0.012600 -0.977833
vn 0.219507 -0.012600 -0.975530
vn 0.219507 -0.012600 -0.975530
vn 0.202308 -0.012701 -0.979240
vn 0.219507 -0.012600 -0.975530
vn 0.202192 -0.012700 -0.979263
vn 0.202308 -0.012701 -0.979240
vn 0.164596 -0.012800 -0.986278
vn 0.202192 -0.012700 -0.979263
vn 0.164499 -0.012800 -0.986294
vn 0.164596 -0.012800 -0.986278
vn 0.122904 -0.012800 -0.992336
vn 0.164499 -0.012800 -0.986294
vn 0.122904 -0.012800 -0.992336
vn 0.122904 -0.012800 -0.992336
vn 0.087201 -0.012900 -0.996107
vn 0.122904 -0.012800 -0.992336
vn 0.087201 -0.012900 -0.996107
vn 0.087201 -0.012900 -0.996107
vn 0.058301 -0.012900 -0.998216
vn 0.087201 -0.012900 -0.996107
vn 0.058301 -0.012900 -0.998216
vn 0.058301 -0.012900 -0.998216
vn 0.034900 -0.012900 -0.999308
vn 0.058301 -0.012900 -0.998216
vn 0.034900 -0.012900 -0.999308
vn 0.034900 -0.012900 -0.999308
vn 0.013800 -0.012900 -0.999822
vn 0.034900 -0.012900 -0.999308
vn 0.013800 -0.012900 -0.999822
vn 1.000000 0.000000 0.000000
vn 1.000000 0.000000 0.000000
vn 1.000000 0.000000 0.000000
vn 1.000000 0.000000 0.000000
vn 0.002600 0.999913 -0.012900
vn 0.002600 0.999913 -0.012900
vn 0.002700 0.999913 -0.012900
vn 0.002800 0.999913 -0.012900
vn -0.002800 -0.999913 0.012900
vn -0.002600 -0.999913 0.012900
vn -0.002700 -0.999913 0.012900
vn -0.002600 -0.999913 0.012900
vn -0.002900 -0.999913 0.012900
vn -0.002800 -0.999913 0.012900
vn -0.002900 -0.999913 0.012900
vn -0.002700 -0.999913 0.012900
vn -0.002600 -0.999913 0.012900
vn -0.002900 -0.999913 0.012900
vn -0.002700 -0.999913 0.012900
vn -0.002900 -0.999913 0.012900
vn -0.002100 -0.999915 0.012900
vn -0.002600 -0.999913 0.012900
vn -0.002200 -0.999914 0.012900
vn -0.002700 -0.999913 0.012900
vn -0.001600 -0.999916 0.012900
vn -0.002100 -0.999915 0.012900
vn -0.001600 -0.999916 0.012900
vn -0.002200 -0.999914 0.012900
vn -0.001100 -0.999916 0.012900
vn -0.001600 -0.999916 0.012900
vn -0.001100 -0.999916 0.012900
vn -0.001600 -0.999916 0.012900
vn -0.000700 -0.999917 0.012900
vn -0.001100 -0.999916 0.012900
vn -0.000800 -0.999917 0.012900
vn -0.001100 -0.999916 0.012900
vn -0.000400 -0.999917 0.012900
vn -0.000700 -0.999917 0.012900
vn -0.000500 -0.999917 0.012900
vn -0.000800 -0.999917 0.012900
vn -0.000200 -0.999917 0.012900
vn -0.000400 -0.999917 0.012900
vn -0.000200 -0.999917 0.012900
vn -0.000500 -0.999917 0.012900
vn 0.000000 -0.999917 0.012900
vn 0.000000 -0.999917 0.012900
vn -0.000200 -0.999917 0.012900
vn -0.000200 -0.999917 0.012900
vn 0.000500 0.999917 -0.012900
vn 0.000400 0.999917 -0.012900
vn 0.000200 0.999917 -0.012900
vn 0.000200 0.999917 -0.012900
vn 0.000800 0.999917 -0.012900
vn 0.000700 0.999917 -0.012900
vn 0.000500 0.999917 -0.012900
vn 0.000400 0.999917 -0.012900
vn 0.001100 0.999915 -0.013000
vn 0.001100 0.999915 -0.013000
vn 0.000800 0.999917 -0.012900
vn 0.000700 0.999917 -0.012900
vn 0.001600 0.999916 -0.012900
vn 0.001600 0.999916 -0.012900
vn 0.001100 0.999915 -0.013000
vn 0.001100 0.999915 -0.013000
vn 0.002200 0.999914 -0.012900
vn 0.002100 0.999915 -0.012900
vn 0.001600 0.999916 -0.012900
vn 0.001600 0.999916 -0.012900
vn 0.002700 0.999913 -0.012900
vn 0.002600 0.999913 -0.012900
vn 0.002200 0.999914 -0.012900
vn 0.002100 0.999915 -0.012900
vn 0.002900 0.999913 -0.012900
vn 0.002900 0.999913 -0.012900
vn 0.002700 0.999913 -0.012900
vn 0.002600 0.999913 -0.012900
vn 0.002700 0.999913 -0.012900
vn 0.002800 0.999913 -0.012900
vn 0.002900 0.999913 -0.012900
vn 0.002900 0.999913 -0.012900
vn 0.013800 -0.012900 -0.999822
vn 0.000000 -0.012900 -0.999917
vn 0.013800 -0.012900 -0.999822
vn 0.000000 -0.012900 -0.999917
vn 0.000200 0.999917 -0.012900
vn 0.000200 0.999917 -0.012900
vn 0.000000 0.999917 -0.012900
vn 0.000000 0.999917 -0.012900
vn -0.013800 0.012900 0.999822
vn -0.013800 0.012900 0.999822
vn 0.000000 0.012900 0.999917
vn 0.000000 0.012900 0.999917
s 1
g initialShadingGroup polySurface305 Mesh
f 1/93/1 3/94/2 2/96/3
f 2/96/3 3/94/2 20/95/4
s 2
f 3/94/5 4/97/6 20/95/7
f 20/95/7 4/97/6 19/98/8
s 3
f 4/97/9 5/99/10 19/98/11
f 19/98/11 5/99/10 18/100/12
s 4
f 5/99/13 6/101/14 18/100/15
f 18/100/15 6/101/14 17/102/16
s 5
f 6/101/17 7/103/18 17/102/19
f 17/102/19 7/103/18 16/104/20
s 6
f 7/103/21 8/105/22 16/104/23
f 16/104/23 8/105/22 15/106/24
s 7
f 8/105/25 9/107/26 15/106/27
f 15/106/27 9/107/26 14/108/28
s 8
f 9/107/29 10/109/30 14/108/31
f 14/108/31 10/109/30 13/110/32
s 9
f 10/109/33 11/111/34 13/110/35
f 13/110/35 11/111/34 12/112/36
s 10
f 21/135/37 22/136/38 23/138/39
f 23/138/39 22/136/38 40/137/40
s 11
f 23/138/41 40/137/42 24/140/43
f 24/140/43 40/137/42 39/139/44
s 12
f 24/140/45 39/139/46 25/142/47
f 25/142/47 39/139/46 38/141/48
s 13
f 25/142/49 38/141/50 26/144/51
f 26/144/51 38/141/50 37/143/52
s 14
f 26/144/53 37/143/54 27/146/55
f 27/146/55 37/143/54 36/145/56
s 15
f 27/146/57 36/145/58 28/148/59
f 28/148/59 36/145/58 35/147/60
s 16
f 28/148/61 35/147/62 29/150/63
f 29/150/63 35/147/62 34/149/64
s 17
f 29/150/65 34/149/66 30/152/67
f 30/152/67 34/149/66 33/151/68
s 18
f 30/152/69 33/151/70 31/154/71
f 31/154/71 33/151/70 32/153/72
s 19
f 1/1/73 2/2/74 21/4/75
f 21/4/75 2/2/74 22/3/76
s 20
f 2/9/77 20/10/78 22/12/79
f 22/12/79 20/10/78 40/11/80
s 21
f 1/52/81 21/53/82 3/51/83
f 3/51/83 21/53/82 23/54/84
s 22
f 3/51/85 23/54/86 4/55/87
f 4/55/87 23/54/86 24/56/88
s 23
f 4/55/89 24/56/90 5/57/91
f 5/57/91 24/56/90 25/58/92
s 24
f 5/57/93 25/58/94 6/59/95
f 6/59/95 25/58/94 26/60/96
s 25
f 6/59/97 26/60/98 7/61/99
f 7/61/99 26/60/98 27/62/100
s 26
f 7/61/101 27/62/102 8/63/103
f 8/63/103 27/62/102 28/64/104
s 27
f 8/63/105 28/64/106 9/65/107
f 9/65/107 28/64/106 29/66/108
s 28
f 9/65/109 29/66/110 10/67/111
f 10/67/111 29/66/110 30/68/112
s 29
f 10/67/113 30/68/114 11/69/115
f 11/69/115 30/68/114 31/70/116
s 30
f 81/71/117 11/69/118 83/72/119
f 83/72/119 11/69/118 31/70/120
s 31
f 13/25/121 12/27/122 33/26/123
f 33/26/123 12/27/122 32/28/124
s 32
f 14/23/125 13/25/126 34/24/127
f 34/24/127 13/25/126 33/26/128
s 33
f 15/21/129 14/23/130 35/22/131
f 35/22/131 14/23/130 34/24/132
s 34
f 16/19/133 15/21/134 36/20/135
f 36/20/135 15/21/134 35/22/136
s 35
f 17/17/137 16/19/138 37/18/139
f 37/18/139 16/19/138 36/20/140
s 36
f 18/15/141 17/17/142 38/16/143
f 38/16/143 17/17/142 37/18/144
s 37
f 19/13/145 18/15/146 39/14/147
f 39/14/147 18/15/146 38/16/148
s 38
f 20/10/149 19/13/150 40/11/151
f 40/11/151 19/13/150 39/14/152
s 39
f 31/154/153 32/153/154 83/156/155
f 83/156/155 32/153/154 84/155/156
s 40
f 12/27/157 82/29/158 32/28/159
f 32/28/159 82/29/158 84/30/160
s 41
f 11/111/161 81/113/162 12/112/163
f 12/112/163 81/113/162 82/114/164
s 42
f 41/133/165 42/134/166 43/131/167
f 43/131/167 42/134/166 60/132/168
s 43
f 43/131/169 60/132/170 44/129/171
f 44/129/171 60/132/170 59/130/172
s 44
f 44/129/173 59/130/174 45/127/175
f 45/127/175 59/130/174 58/128/176
s 45
f 45/127/177 58/128/178 46/125/179
f 46/125/179 58/128/178 57/126/180
s 46
f 46/125/181 57/126/182 47/123/183
f 47/123/183 57/126/182 56/124/184
s 47
f 47/123/185 56/124/186 48/121/187
f 48/121/187 56/124/186 55/122/188
s 48
f 48/121/189 55/122/190 49/119/191
f 49/119/191 55/122/190 54/120/192
s 49
f 49/119/193 54/120/194 50/117/195
f 50/117/195 54/120/194 53/118/196
s 50
f 50/117/197 53/118/198 51/115/199
f 51/115/199 53/118/198 52/116/200
s 51
f 61/175/201 63/173/202 62/176/203
f 62/176/203 63/173/202 80/174/204
s 52
f 63/173/205 64/171/206 80/174/207
f 80/174/207 64/171/206 79/172/208
s 53
f 64/171/209 65/169/210 79/172/211
f 79/172/211 65/169/210 78/170/212
s 54
f 65/169/213 66/167/214 78/170/215
f 78/170/215 66/167/214 77/168/216
s 55
f 66/167/217 67/165/218 77/168/219
f 77/168/219 67/165/218 76/166/220
s 56
f 67/165/221 68/163/222 76/166/223
f 76/166/223 68/163/222 75/164/224
s 57
f 68/163/225 69/161/226 75/164/227
f 75/164/227 69/161/226 74/162/228
s 58
f 69/161/229 70/159/230 74/162/231
f 74/162/231 70/159/230 73/160/232
s 59
f 70/159/233 71/157/234 73/160/235
f 73/160/235 71/157/234 72/158/236
s 60
f 41/5/237 61/6/238 42/8/239
f 42/8/239 61/6/238 62/7/240
s 61
f 42/49/241 62/50/242 60/47/243
f 60/47/243 62/50/242 80/48/244
s 62
f 63/89/245 61/91/246 43/90/247
f 43/90/247 61/91/246 41/92/248
s 63
f 64/87/249 63/89/250 44/88/251
f 44/88/251 63/89/250 43/90/252
s 64
f 65/85/253 64/87/254 45/86/255
f 45/86/255 64/87/254 44/88/256
s 65
f 66/83/257 65/85/258 46/84/259
f 46/84/259 65/85/258 45/86/260
s 66
f 67/81/261 66/83/262 47/82/263
f 47/82/263 66/83/262 46/84/264
s 67
f 68/79/265 67/81/266 48/80/267
f 48/80/267 67/81/266 47/82/268
s 68
f 69/77/269 68/79/270 49/78/271
f 49/78/271 68/79/270 48/80/272
s 69
f 70/75/273 69/77/274 50/76/275
f 50/76/275 69/77/274 49/78/276
s 70
f 71/73/277 70/75/278 51/74/279
f 51/74/279 70/75/278 50/76/280
s 71
f 81/71/281 83/72/282 51/74/283
f 51/74/283 83/72/282 71/73/284
s 72
f 53/33/285 73/34/286 52/31/287
f 52/31/287 73/34/286 72/32/288
s 73
f 54/35/289 74/36/290 53/33/291
f 53/33/291 74/36/290 73/34/292
s 74
f 55/37/293 75/38/294 54/35/295
f 54/35/295 75/38/294 74/36/296
s 75
f 56/39/297 76/40/298 55/37/299
f 55/37/299 76/40/298 75/38/300
s 76
f 57/41/301 77/42/302 56/39/303
f 56/39/303 77/42/302 76/40/304
s 77
f 58/43/305 78/44/306 57/41/307
f 57/41/307 78/44/306 77/42/308
s 78
f 59/45/309 79/46/310 58/43/311
f 58/43/311 79/46/310 78/44/312
s 79
f 60/47/313 80/48/314 59/45/315
f 59/45/315 80/48/314 79/46/316
s 80
f 71/157/317 83/156/318 72/158/319
f 72/158/319 83/156/318 84/155/320
s 81
f 52/31/321 72/32/322 82/29/323
f 82/29/323 72/32/322 84/30/324
s 82
f 51/115/325 52/116/326 81/113/327
f 81/113/327 52/116/326 82/114/328
