# This file uses centimeters as units for non-parametric coordinates.

mtllib screen.mtl
g default
v -8.890924 9.237907 1.384599
v -8.890924 1.805236 1.480709
v -7.957315 1.805236 1.293367
v -7.023706 1.805236 1.081535
v -6.090097 1.805236 0.873189
v -5.156488 1.805236 0.695802
v -4.222879 1.805236 0.561475
v -3.289271 1.805236 0.464463
v -2.355662 1.805236 0.398020
v -1.422053 1.805236 0.355461
v -0.488444 1.805236 0.332801
v 0.000000 1.805236 0.331214
v 7.957315 1.805236 1.293367
v 8.890924 1.805236 1.480709
v 8.890924 9.237907 1.384599
v 7.023706 1.805236 1.081535
v 6.090097 1.805236 0.873189
v 5.156488 1.805236 0.695802
v 4.222879 1.805236 0.561475
v 3.289271 1.805236 0.464463
v 2.355662 1.805236 0.398020
v 1.422053 1.805236 0.355461
v 0.488444 1.805236 0.332801
v -7.957315 9.237907 1.197258
v -7.023707 9.237907 0.985425
v -6.090098 9.237907 0.777079
v -5.156489 9.237907 0.599692
v -4.222880 9.237907 0.465365
v -3.289272 9.237907 0.368353
v -2.355663 9.237907 0.301910
v -1.422054 9.237907 0.259352
v -0.488445 9.237907 0.236691
v -0.000000 9.237907 0.235105
v 7.957315 9.237907 1.197258
v 7.023707 9.237907 0.985425
v 6.090098 9.237907 0.777079
v 5.156489 9.237907 0.599692
v 4.222880 9.237907 0.465365
v 3.289272 9.237907 0.368353
v 2.355663 9.237907 0.301910
v 1.422054 9.237907 0.259352
v 0.488445 9.237907 0.236691
vt 0.052579 0.293756
vt 0.000251 0.710078
vt 0.000284 0.293752
vt 0.052546 0.710083
vt 0.104873 0.293760
vt 0.104840 0.710087
vt 0.157168 0.293764
vt 0.157134 0.710091
vt 0.209462 0.293768
vt 0.209429 0.710095
vt 0.261756 0.293772
vt 0.261723 0.710099
vt 0.314050 0.293777
vt 0.314017 0.710103
vt 0.366345 0.293781
vt 0.366311 0.710108
vt 0.418639 0.293785
vt 0.418606 0.710112
vt 0.470933 0.293789
vt 0.470900 0.710116
vt 0.498293 0.293791
vt 0.498259 0.710118
vt 0.525619 0.710120
vt 0.525652 0.293793
vt 0.577913 0.710124
vt 0.577946 0.293798
vt 0.630207 0.710129
vt 0.630240 0.293802
vt 0.682502 0.710133
vt 0.682535 0.293806
vt 0.734796 0.710137
vt 0.734829 0.293810
vt 0.787090 0.710141
vt 0.787123 0.293814
vt 0.839384 0.710145
vt 0.839418 0.293818
vt 0.891679 0.710149
vt 0.891712 0.293822
vt 0.943973 0.710153
vt 0.944006 0.293827
vt 0.996267 0.710158
vt 0.996301 0.293831
vn 0.209007 0.012600 0.977833
vn 0.196696 0.012700 0.980382
vn 0.196696 0.012700 0.980382
vn 0.219507 0.012600 0.975530
vn 0.209007 0.012600 0.977833
vn 0.209007 0.012600 0.977833
vn 0.202308 0.012701 0.979240
vn 0.219507 0.012600 0.975530
vn 0.219507 0.012600 0.975530
vn 0.164596 0.012800 0.986278
vn 0.202192 0.012700 0.979263
vn 0.202308 0.012701 0.979240
vn 0.122904 0.012800 0.992336
vn 0.164499 0.012800 0.986294
vn 0.164596 0.012800 0.986278
vn 0.087201 0.012900 0.996107
vn 0.122904 0.012800 0.992336
vn 0.122904 0.012800 0.992336
vn 0.058301 0.012900 0.998216
vn 0.087201 0.012900 0.996107
vn 0.087201 0.012900 0.996107
vn 0.034900 0.012900 0.999308
vn 0.058301 0.012900 0.998216
vn 0.058301 0.012900 0.998216
vn 0.013800 0.012900 0.999822
vn 0.034900 0.012900 0.999308
vn 0.034900 0.012900 0.999308
vn 0.000000 0.012900 0.999917
vn 0.013800 0.012900 0.999822
vn 0.013800 0.012900 0.999822
vn -0.196696 0.012700 0.980382
vn -0.209007 0.012600 0.977833
vn -0.196696 0.012700 0.980382
vn -0.209007 0.012600 0.977833
vn -0.219507 0.012600 0.975530
vn -0.209007 0.012600 0.977833
vn -0.219507 0.012600 0.975530
vn -0.202308 0.012701 0.979240
vn -0.219507 0.012600 0.975530
vn -0.202192 0.012700 0.979263
vn -0.164596 0.012800 0.986278
vn -0.202308 0.012701 0.979240
vn -0.164499 0.012800 0.986294
vn -0.122904 0.012800 0.992336
vn -0.164596 0.012800 0.986278
vn -0.122904 0.012800 0.992336
vn -0.087201 0.012900 0.996107
vn -0.122904 0.012800 0.992336
vn -0.087201 0.012900 0.996107
vn -0.058301 0.012900 0.998216
vn -0.087201 0.012900 0.996107
vn -0.058301 0.012900 0.998216
vn -0.034900 0.012900 0.999308
vn -0.058301 0.012900 0.998216
vn -0.034900 0.012900 0.999308
vn -0.013800 0.012900 0.999822
vn -0.034900 0.012900 0.999308
vn -0.013800 0.012900 0.999822
vn 0.000000 0.012900 0.999917
vn -0.013800 0.012900 0.999822
vn 0.209007 0.012600 0.977833
vn 0.209007 0.012600 0.977833
vn 0.196696 0.012700 0.980382
vn 0.219507 0.012600 0.975530
vn 0.219507 0.012600 0.975530
vn 0.209007 0.012600 0.977833
vn 0.202308 0.012701 0.979240
vn 0.202192 0.012700 0.979263
vn 0.219507 0.012600 0.975530
vn 0.164596 0.012800 0.986278
vn 0.164499 0.012800 0.986294
vn 0.202192 0.012700 0.979263
vn 0.122904 0.012800 0.992336
vn 0.122904 0.012800 0.992336
vn 0.164499 0.012800 0.986294
vn 0.087201 0.012900 0.996107
vn 0.087201 0.012900 0.996107
vn 0.122904 0.012800 0.992336
vn 0.058301 0.012900 0.998216
vn 0.058301 0.012900 0.998216
vn 0.087201 0.012900 0.996107
vn 0.034900 0.012900 0.999308
vn 0.034900 0.012900 0.999308
vn 0.058301 0.012900 0.998216
vn 0.013800 0.012900 0.999822
vn 0.013800 0.012900 0.999822
vn 0.034900 0.012900 0.999308
vn 0.000000 0.012900 0.999917
vn 0.000000 0.012900 0.999917
vn 0.013800 0.012900 0.999822
vn -0.196696 0.012700 0.980382
vn -0.209007 0.012600 0.977833
vn -0.209007 0.012600 0.977833
vn -0.209007 0.012600 0.977833
vn -0.219507 0.012600 0.975530
vn -0.219507 0.012600 0.975530
vn -0.219507 0.012600 0.975530
vn -0.202192 0.012700 0.979263
vn -0.202308 0.012701 0.979240
vn -0.202192 0.012700 0.979263
vn -0.164499 0.012800 0.986294
vn -0.164596 0.012800 0.986278
vn -0.164499 0.012800 0.986294
vn -0.122904 0.012800 0.992336
vn -0.122904 0.012800 0.992336
vn -0.122904 0.012800 0.992336
vn -0.087201 0.012900 0.996107
vn -0.087201 0.012900 0.996107
vn -0.087201 0.012900 0.996107
vn -0.058301 0.012900 0.998216
vn -0.058301 0.012900 0.998216
vn -0.058301 0.012900 0.998216
vn -0.034900 0.012900 0.999308
vn -0.034900 0.012900 0.999308
vn -0.034900 0.012900 0.999308
vn -0.013800 0.012900 0.999822
vn -0.013800 0.012900 0.999822
vn -0.013800 0.012900 0.999822
vn 0.000000 0.012900 0.999917
vn 0.000000 0.012900 0.999917
s off
g polySurface1 screen_1:Mesh
usemtl screen_1:wite
f 3/1/1 1/2/2 2/3/3
f 4/5/4 24/4/5 3/1/6
f 5/7/7 25/6/8 4/5/9
f 6/9/10 26/8/11 5/7/12
f 7/11/13 27/10/14 6/9/15
f 8/13/16 28/12/17 7/11/18
f 9/15/19 29/14/20 8/13/21
f 10/17/22 30/16/23 9/15/24
f 11/19/25 31/18/26 10/17/27
f 12/21/28 32/20/29 11/19/30
f 15/41/31 13/40/32 14/42/33
f 34/39/34 16/38/35 13/40/36
f 35/37/37 17/36/38 16/38/39
f 36/35/40 18/34/41 17/36/42
f 37/33/43 19/32/44 18/34/45
f 38/31/46 20/30/47 19/32/48
f 39/29/49 21/28/50 20/30/51
f 40/27/52 22/26/53 21/28/54
f 41/25/55 23/24/56 22/26/57
f 42/23/58 12/21/59 23/24/60
f 3/1/61 24/4/62 1/2/63
f 4/5/64 25/6/65 24/4/66
f 5/7/67 26/8/68 25/6/69
f 6/9/70 27/10/71 26/8/72
f 7/11/73 28/12/74 27/10/75
f 8/13/76 29/14/77 28/12/78
f 9/15/79 30/16/80 29/14/81
f 10/17/82 31/18/83 30/16/84
f 11/19/85 32/20/86 31/18/87
f 12/21/88 33/22/89 32/20/90
f 15/41/91 34/39/92 13/40/93
f 34/39/94 35/37/95 16/38/96
f 35/37/97 36/35/98 17/36/99
f 36/35/100 37/33/101 18/34/102
f 37/33/103 38/31/104 19/32/105
f 38/31/106 39/29/107 20/30/108
f 39/29/109 40/27/110 21/28/111
f 40/27/112 41/25/113 22/26/114
f 41/25/115 42/23/116 23/24/117
f 42/23/118 33/22/119 12/21/120
